<svg width="60" height="60" viewBox="0 0 60 60" fill="none" xmlns="http://www.w3.org/2000/svg">
<path fill-rule="evenodd" clip-rule="evenodd" d="M15.7721 52.6003L16.5811 54.0299C16.5815 54.0306 16.582 54.0314 16.5824 54.0321C17.2291 55.1823 16.8191 56.65 15.6754 57.2959L12.9028 58.8673C12.9019 58.8679 12.9009 58.8684 12.9 58.8689C11.7498 59.5155 10.2821 59.1056 9.636 57.9614L1.48259 43.5547C0.830117 42.4035 1.24023 40.9346 2.38518 40.2879L5.16106 38.7163L5.16188 38.7159C6.30635 38.0695 7.77447 38.4759 8.42624 39.6203L8.42741 39.6224L9.08871 40.791L16.3856 36.5663C18.558 35.3101 20.7769 34.4875 23.1628 35.2622C25.4984 36.0195 29.3114 37.6516 33.2027 38.3548C33.2442 38.3623 33.2852 38.3726 33.3253 38.3856C35.2669 39.0143 36.4485 40.9768 35.9182 42.9484C35.8273 43.2873 35.7033 43.5994 35.5484 43.8819C36.0085 43.7607 36.4579 43.5746 36.8991 43.3175L46.7853 37.5596C50.3358 35.4913 52.7016 35.7074 54.0415 36.6063C55.1887 37.376 55.7194 38.6904 55.6851 39.9804C55.6505 41.2833 55.0312 42.5286 54.0095 43.1577L36.0704 54.2027C34.1933 55.3611 32.1372 55.6329 30.0072 55.0647L30.0062 55.0643L17.3699 51.6777L15.7721 52.6003ZM10.0159 42.4293L14.8449 50.9621L16.7662 49.8527C16.9824 49.7279 17.2393 49.694 17.4805 49.7587L30.4927 53.246C32.1045 53.6759 33.6614 53.4775 35.0818 52.6008L35.0826 52.6003L53.0225 41.5549C53.4974 41.2624 53.746 40.6753 53.7956 40.0733C53.8721 39.1461 53.436 38.1232 52.2893 37.8829C51.2356 37.6622 49.7519 38.01 47.7328 39.1862L37.8468 44.9439C36.2701 45.8627 34.6175 46.1164 32.8165 45.8297C32.8154 45.8296 32.8144 45.8294 32.8133 45.8293L31.5875 45.6299C31.5872 45.6297 31.5868 45.6297 31.5864 45.6296C31.5736 45.6275 31.5609 45.6251 31.5484 45.6226C31.5479 45.6226 31.5475 45.6224 31.5471 45.6223C29.3167 45.1646 27.2482 44.4907 24.9531 43.8739C24.4514 43.739 24.1535 43.2223 24.2884 42.7207C24.4232 42.219 24.9399 41.9212 25.4415 42.056C27.6858 42.6591 29.7086 43.3204 31.8874 43.7706C33.0161 43.8963 33.8408 43.4266 34.1004 42.4601L34.1005 42.4596C34.3638 41.4807 33.7512 40.5304 32.7996 40.1948C28.8381 39.4681 24.9601 37.8237 22.582 37.0527L22.5815 37.0526C20.7229 36.449 19.0204 37.217 17.3281 38.1957L10.0159 42.4293ZM6.79024 40.5513L6.78953 40.5501C6.64859 40.3048 6.33365 40.216 6.08765 40.3548L3.31259 41.9259L3.31176 41.9263C3.06635 42.0649 2.98047 42.38 3.12023 42.6264L3.12047 42.627L11.2741 57.0343L11.2746 57.035C11.4135 57.281 11.7294 57.367 11.9767 57.2286L14.7473 55.6582L14.7485 55.6575C14.9946 55.5186 15.0806 55.2026 14.9419 54.9552L6.79024 40.5513ZM5.714 42.0872C6.34329 41.9935 6.92765 42.428 7.02129 43.0573C7.11118 43.6866 6.67671 44.2746 6.04741 44.3644C5.41812 44.4581 4.83376 44.0199 4.74012 43.3906C4.65023 42.7613 5.08471 42.177 5.714 42.0872ZM21.7064 11.0793C21.7064 10.743 21.8856 10.4323 22.1769 10.2642L27.1162 7.41244L31.1508 5.08327L36.0901 2.2315C36.3813 2.06338 36.74 2.06338 37.0313 2.2315L50.9445 10.2642C51.2356 10.4323 51.4151 10.743 51.4151 11.0793V27.1447C51.4151 27.4809 51.2356 27.7916 50.9445 27.9597L37.0313 35.9924C36.74 36.1606 36.3813 36.1606 36.0901 35.9924L22.1769 27.9597C21.8856 27.7916 21.7064 27.4809 21.7064 27.1447V11.0793ZM27.5868 9.31433L24.5299 11.0793L36.5607 18.0251L39.6176 16.2602L27.5868 9.31433ZM31.6213 6.98503L29.4692 8.2275L41.5 15.1735L43.6521 13.931L31.6213 6.98503ZM48.5915 11.0793L36.5607 4.13338L33.5036 5.89833L45.5345 12.8442L48.5915 11.0793ZM37.5019 33.5472L49.5327 26.6013V12.7094L46.4758 14.4743V20.2583C46.4758 20.5946 46.2964 20.9053 46.0052 21.0734L41.9705 23.4026C41.6793 23.5707 41.3206 23.5707 41.0294 23.4026C40.7381 23.2343 40.5588 22.9237 40.5588 22.5874V17.8904L37.5019 19.6554V33.5472ZM23.5887 12.7094V26.6013L35.6195 33.5472V19.6554L23.5887 12.7094ZM44.5934 15.5611L42.4412 16.8036V20.9574L44.5934 19.7149V15.5611ZM49.4331 5.4055C49.2986 5.90727 48.7821 6.20538 48.2804 6.07103C47.7786 5.93656 47.4804 5.42009 47.6148 4.91833L48.5251 1.52091C48.6595 1.01927 49.176 0.721032 49.6778 0.855502C50.1795 0.989855 50.4778 1.50644 50.3433 2.00821L49.4331 5.4055ZM54.2422 16.4474C53.7406 16.3124 53.4429 15.7956 53.5779 15.294C53.7128 14.7924 54.2296 14.4947 54.7312 14.6296L58.1309 15.5441C58.6326 15.679 58.9304 16.1959 58.7954 16.6975C58.6605 17.1991 58.1436 17.4968 57.642 17.3619L54.2422 16.4474ZM54.1228 9.93421C53.6729 10.1939 53.0969 10.0395 52.8372 9.58962C52.5774 9.13986 52.7318 8.56374 53.1816 8.30397L56.2333 6.54221C56.6831 6.28244 57.2592 6.4368 57.5189 6.88668C57.7786 7.33656 57.6242 7.91256 57.1745 8.17233L54.1228 9.93421ZM25.5066 4.91833C25.6409 5.42009 25.3428 5.93656 24.8411 6.07103C24.3393 6.20538 23.8228 5.90727 23.6884 5.4055L22.778 2.00821C22.6435 1.50644 22.9418 0.989855 23.4435 0.855502C23.9453 0.721032 24.4618 1.01927 24.5962 1.52091L25.5066 4.91833ZM18.3901 14.6296C18.8918 14.4947 19.4085 14.7924 19.5434 15.294C19.6784 15.7956 19.3807 16.3124 18.8791 16.4474L15.4793 17.3619C14.9778 17.4968 14.4609 17.1991 14.326 16.6975C14.1911 16.1959 14.4887 15.679 14.9904 15.5441L18.3901 14.6296ZM19.9396 8.30397C20.3895 8.56374 20.5439 9.13986 20.2841 9.58962C20.0245 10.0395 19.4484 10.1939 18.9985 9.93421L15.9469 8.17233C15.4971 7.91256 15.3427 7.33656 15.6025 6.88668C15.8621 6.4368 16.4382 6.28244 16.8881 6.54221L19.9396 8.30397Z" fill="#0F62FE"/>
</svg>
