<svg width="20" height="20" viewBox="0 0 20 20" fill="none" xmlns="http://www.w3.org/2000/svg">
<path fill-rule="evenodd" clip-rule="evenodd" d="M7.76157 15.9277L11.0243 3.75098L12.2317 4.0745L8.96898 16.2512L7.76157 15.9277ZM0.625 10.0004L5 5.62539L5.88125 6.50664L2.39375 10.0004L5.88125 13.4941L5 14.3754L0.625 10.0004ZM19.375 10.0004L15 14.3754L14.1187 13.4941L17.6062 10.0004L14.1187 6.50664L15 5.62539L19.375 10.0004Z" fill="#505155"/>
<path fill-rule="evenodd" clip-rule="evenodd" d="M7.76157 15.9277L11.0243 3.75098L12.2317 4.0745L8.96898 16.2512L7.76157 15.9277ZM0.625 10.0004L5 5.62539L5.88125 6.50664L2.39375 10.0004L5.88125 13.4941L5 14.3754L0.625 10.0004ZM19.375 10.0004L15 14.3754L14.1187 13.4941L17.6062 10.0004L14.1187 6.50664L15 5.62539L19.375 10.0004Z" fill="black" fill-opacity="0.8"/>
</svg>
