<svg width="1440" height="1177" viewBox="0 0 1440 1177" fill="none" xmlns="http://www.w3.org/2000/svg">
<g filter="url(#filter0_f_2542_12040)">
<circle cx="1159" cy="631" r="146" fill="url(#paint0_linear_2542_12040)"/>
</g>
<g filter="url(#filter1_f_2542_12040)">
<circle cx="220" cy="585" r="112" fill="url(#paint1_linear_2542_12040)"/>
</g>
<g filter="url(#filter2_f_2542_12040)">
<circle cx="514.419" cy="-5.62527" r="125" transform="rotate(165 514.419 -5.62527)" fill="url(#paint2_linear_2542_12040)"/>
</g>
<g style="mix-blend-mode:overlay">
<circle opacity="0.08" cx="720" cy="-104" r="155.5" stroke="black" stroke-dasharray="4 4"/>
<circle opacity="0.08" cx="720" cy="-104" r="243.5" stroke="black" stroke-dasharray="4 4"/>
<path opacity="0.08" d="M1066.95 -110.035C1066.97 -108.697 1066.99 -107.356 1066.99 -106.014L1066.49 -106.012C1066.5 -105.341 1066.5 -104.671 1066.5 -104C1066.5 -103.329 1066.5 -102.658 1066.49 -101.988L1066.99 -101.985C1066.99 -100.643 1066.97 -99.3031 1066.95 -97.9647L1066.45 -97.9732C1066.43 -96.6368 1066.4 -95.3022 1066.36 -93.9695L1066.86 -93.9552C1066.82 -92.6206 1066.77 -91.2879 1066.72 -89.9571L1066.22 -89.977C1066.17 -88.6475 1066.11 -87.3199 1066.04 -85.9942L1066.54 -85.9687C1066.47 -84.6275 1066.39 -83.2885 1066.31 -81.9514L1065.81 -81.9827C1065.73 -80.6476 1065.64 -79.3145 1065.54 -77.9835L1066.04 -77.9465C1065.94 -76.6136 1065.83 -75.2828 1065.72 -73.9541L1065.22 -73.9969C1065.11 -72.6701 1064.98 -71.3455 1064.86 -70.023L1065.35 -69.9745C1065.22 -68.6422 1065.09 -67.312 1064.94 -65.9841L1064.44 -66.0382C1064.3 -64.7076 1064.15 -63.3792 1063.99 -62.0532L1064.48 -61.9933C1064.32 -60.6653 1064.16 -59.3397 1063.98 -58.0164L1063.48 -58.082C1063.31 -56.7606 1063.13 -55.4416 1062.94 -54.1249L1063.43 -54.0536C1063.24 -52.7321 1063.04 -51.4129 1062.84 -50.0963L1062.34 -50.1733C1062.14 -48.8504 1061.92 -47.5299 1061.7 -46.212L1062.2 -46.1292C1061.97 -44.8094 1061.75 -43.492 1061.51 -42.1773L1061.02 -42.2658C1060.78 -40.953 1060.54 -39.6427 1060.29 -38.335L1060.78 -38.2408C1060.53 -36.9312 1060.27 -35.6244 1060 -34.3201L1059.51 -34.4199C1059.24 -33.1084 1058.97 -31.7996 1058.69 -30.4936L1059.18 -30.388C1058.89 -29.0794 1058.6 -27.7736 1058.31 -26.4706L1057.82 -26.5818C1057.52 -25.2806 1057.22 -23.9823 1056.91 -22.6867L1057.39 -22.5698C1057.08 -21.2724 1056.76 -19.9778 1056.43 -18.6861L1055.95 -18.8087C1055.62 -17.5135 1055.29 -16.2212 1054.95 -14.9319L1055.43 -14.8037C1055.09 -13.5095 1054.73 -12.2182 1054.38 -10.9299L1053.9 -11.0637C1053.54 -9.77728 1053.17 -8.4939 1052.8 -7.21356L1053.28 -7.07416C1052.91 -5.79196 1052.53 -4.51282 1052.14 -3.23679L1051.67 -3.38177C1051.28 -2.10495 1050.88 -0.831238 1050.48 0.43927L1050.96 0.589813C1050.56 1.86676 1050.15 3.1405 1049.73 4.41104L1049.25 4.25497C1048.84 5.52365 1048.41 6.78909 1047.98 8.05124L1048.46 8.21286C1048.02 9.47687 1047.58 10.7376 1047.14 11.995L1046.67 11.8279C1046.22 13.0841 1045.77 14.3371 1045.31 15.5867L1045.78 15.7592C1045.32 17.016 1044.85 18.2693 1044.37 19.5192L1043.9 19.3412C1043.43 20.5892 1042.95 21.8339 1042.46 23.075L1042.92 23.2584C1042.43 24.5013 1041.93 25.7407 1041.43 26.9765L1040.97 26.7877C1040.46 28.0217 1039.95 29.2522 1039.44 30.4791L1039.9 30.6733C1039.38 31.9065 1038.85 33.1361 1038.32 34.362L1037.86 34.1625C1037.33 35.3871 1036.79 36.6081 1036.24 37.8254L1036.7 38.0302C1036.15 39.2493 1035.59 40.4646 1035.03 41.6761L1034.58 41.4659C1034.02 42.6757 1033.45 43.8817 1032.88 45.0838L1033.33 45.2992C1032.75 46.506 1032.17 47.7089 1031.58 48.9079L1031.13 48.6873C1030.54 49.8859 1029.95 51.0805 1029.34 52.2713L1029.79 52.4971C1029.19 53.6895 1028.58 54.878 1027.96 56.0625L1027.52 55.8316C1026.9 57.0143 1026.28 58.1931 1025.65 59.3679L1026.09 59.6039C1025.46 60.782 1024.82 61.9561 1024.18 63.126L1023.74 62.8848C1023.09 64.0547 1022.44 65.2205 1021.79 66.3821L1022.22 66.6284C1021.56 67.7917 1020.9 68.9508 1020.23 70.1057L1019.79 69.8544C1019.12 71.0077 1018.45 72.1567 1017.76 73.3015L1018.19 73.5577C1017.51 74.7049 1016.82 75.8478 1016.12 76.9864L1015.69 76.7252C1015 77.864 1014.29 78.9984 1013.58 80.1285L1014.01 80.3945C1013.29 81.5262 1012.58 82.6535 1011.85 83.7763L1011.43 83.5054C1010.71 84.6265 1009.98 85.7433 1009.25 86.8556L1009.66 87.1313C1008.93 88.2455 1008.18 89.3552 1007.43 90.4603L1007.02 90.1797C1006.27 91.2849 1005.52 92.3856 1004.75 93.4816L1005.16 93.767C1004.4 94.8646 1003.63 95.9576 1002.86 97.046L1002.45 96.756C1001.68 97.8428 1000.9 98.9249 1000.11 100.002L1000.51 100.297C999.728 101.376 998.934 102.45 998.135 103.52L997.735 103.22C996.935 104.29 996.13 105.354 995.319 106.414L995.716 106.718C994.904 107.779 994.086 108.836 993.261 109.887L992.868 109.579C992.045 110.629 991.216 111.674 990.381 112.714L990.771 113.027C989.935 114.069 989.093 115.106 988.245 116.138L987.858 115.821C987.011 116.852 986.158 117.878 985.299 118.899L985.682 119.221C984.822 120.244 983.956 121.261 983.084 122.274L982.705 121.948C981.835 122.959 980.959 123.965 980.077 124.966L980.452 125.296C979.569 126.299 978.68 127.296 977.785 128.288L977.414 127.953C976.52 128.944 975.621 129.93 974.717 130.91L975.084 131.25C974.178 132.232 973.266 133.208 972.349 134.18L971.985 133.837C971.069 134.807 970.148 135.772 969.221 136.731L969.58 137.078C968.652 138.039 967.718 138.995 966.779 139.945L966.423 139.593C965.485 140.542 964.542 141.486 963.593 142.424L963.945 142.779C962.995 143.718 962.039 144.652 961.078 145.581L960.731 145.221C959.771 146.148 958.807 147.07 957.836 147.985L958.18 148.349C957.208 149.266 956.231 150.178 955.249 151.084L954.91 150.717C953.93 151.621 952.944 152.521 951.953 153.414L952.288 153.785C951.296 154.68 950.299 155.569 949.296 156.452L948.966 156.077C947.965 156.959 946.959 157.835 945.948 158.705L946.274 159.084C945.261 159.956 944.243 160.822 943.221 161.682L942.899 161.3C941.878 162.158 940.852 163.011 939.82 163.859L940.138 164.245C939.106 165.093 938.069 165.935 937.027 166.771L936.714 166.381C935.674 167.216 934.629 168.045 933.579 168.868L933.887 169.261C932.836 170.086 931.779 170.904 930.718 171.716L930.414 171.319C929.354 172.13 928.29 172.936 927.22 173.735L927.52 174.135C926.45 174.934 925.376 175.728 924.297 176.515L924.002 176.111C922.925 176.897 921.843 177.677 920.756 178.451L921.046 178.858C919.957 179.633 918.864 180.402 917.767 181.165L917.481 180.754C916.385 181.516 915.285 182.271 914.18 183.02L914.46 183.434C913.355 184.183 912.245 184.926 911.131 185.663L910.855 185.246C909.743 185.981 908.626 186.71 907.505 187.433L907.776 187.853C906.653 188.577 905.526 189.295 904.394 190.006L904.128 189.583C902.998 190.293 901.864 190.997 900.725 191.694L900.986 192.121C899.848 192.818 898.705 193.509 897.557 194.194L897.301 193.764C896.156 194.447 895.008 195.124 893.854 195.794L894.106 196.227C892.951 196.898 891.792 197.562 890.628 198.221L890.382 197.785C889.22 198.443 888.055 199.093 886.885 199.738L887.126 200.176C885.956 200.82 884.782 201.457 883.604 202.088L883.368 201.648C882.193 202.277 881.014 202.899 879.831 203.515L880.062 203.959C878.878 204.576 877.689 205.186 876.497 205.79L876.271 205.344C875.08 205.946 873.886 206.542 872.687 207.132L872.908 207.58C871.709 208.17 870.506 208.753 869.299 209.329L869.084 208.877C867.881 209.451 866.676 210.018 865.466 210.579L865.676 211.032C864.464 211.594 863.249 212.148 862.03 212.696L861.825 212.239C860.608 212.786 859.387 213.326 858.162 213.859L858.362 214.318C857.136 214.851 855.906 215.378 854.673 215.898L854.479 215.437C853.252 215.954 852.022 216.464 850.788 216.968L850.976 217.431C849.741 217.935 848.501 218.432 847.258 218.922L847.075 218.457C845.834 218.947 844.589 219.429 843.341 219.905L843.519 220.372C842.269 220.848 841.016 221.317 839.759 221.779L839.586 221.31C838.337 221.77 837.084 222.222 835.828 222.668L835.995 223.139C834.737 223.585 833.477 224.024 832.213 224.455L832.051 223.982C830.789 224.413 829.523 224.837 828.255 225.254L828.411 225.729C827.14 226.147 825.867 226.557 824.59 226.96L824.439 226.483C823.169 226.884 821.895 227.278 820.618 227.665L820.763 228.144C819.487 228.53 818.208 228.91 816.926 229.282L816.786 228.802C815.506 229.174 814.222 229.538 812.936 229.895L813.07 230.377C811.782 230.735 810.49 231.086 809.196 231.429L809.068 230.946C807.779 231.288 806.486 231.622 805.191 231.95L805.314 232.434C804.022 232.761 802.727 233.08 801.43 233.392L801.313 232.906C800.017 233.218 798.719 233.522 797.418 233.819L797.529 234.306C796.226 234.604 794.92 234.894 793.612 235.176L793.506 234.688C792.2 234.97 790.891 235.245 789.58 235.512L789.68 236.002C788.375 236.268 787.068 236.526 785.759 236.778L785.665 236.286C784.357 236.537 783.047 236.781 781.734 237.017L781.822 237.509C780.508 237.745 779.19 237.974 777.87 238.196L777.788 237.703C776.47 237.924 775.149 238.138 773.826 238.344L773.903 238.838C772.587 239.044 771.268 239.242 769.946 239.432L769.875 238.937C768.558 239.127 767.239 239.309 765.918 239.484L765.983 239.98C764.66 240.155 763.334 240.323 762.006 240.483L761.946 239.987C760.62 240.147 759.292 240.299 757.961 240.444L758.016 240.941C756.688 241.086 755.357 241.223 754.025 241.353L753.977 240.855C752.654 240.984 751.33 241.105 750.003 241.219L750.046 241.717C748.717 241.831 747.386 241.938 746.053 242.037L746.016 241.538C744.685 241.637 743.352 241.728 742.017 241.812L742.048 242.311C740.711 242.395 739.372 242.471 738.031 242.54L738.005 242.04C736.68 242.108 735.352 242.169 734.023 242.221L734.043 242.721C732.712 242.774 731.379 242.819 730.044 242.857L730.03 242.358C728.697 242.396 727.363 242.426 726.026 242.449L726.035 242.949C724.697 242.971 723.356 242.987 722.014 242.994L722.012 242.494C721.667 242.496 721.322 242.498 720.977 242.499C720.651 242.5 720.326 242.5 720 242.5C719.329 242.5 718.658 242.498 717.988 242.494L717.985 242.994C716.643 242.987 715.303 242.971 713.965 242.949L713.973 242.449C712.637 242.426 711.302 242.396 709.969 242.358L709.955 242.857C708.621 242.819 707.288 242.774 705.957 242.721L705.977 242.221C704.647 242.169 703.32 242.108 701.994 242.04L701.969 242.54C700.628 242.471 699.288 242.395 697.951 242.311L697.983 241.812C696.648 241.728 695.314 241.637 693.983 241.538L693.947 242.037C692.614 241.938 691.283 241.831 689.954 241.717L689.997 241.219C688.67 241.105 687.345 240.984 686.023 240.855L685.975 241.353C684.642 241.223 683.312 241.086 681.984 240.941L682.038 240.444C680.708 240.299 679.379 240.147 678.053 239.987L677.993 240.483C676.665 240.323 675.34 240.155 674.016 239.98L674.082 239.484C672.761 239.309 671.442 239.127 670.125 238.937L670.054 239.432C668.732 239.242 667.413 239.044 666.096 238.838L666.173 238.344C664.85 238.138 663.53 237.924 662.212 237.703L662.129 238.196C660.809 237.974 659.492 237.745 658.177 237.509L658.266 237.017C656.953 236.781 655.643 236.537 654.335 236.286L654.241 236.777C652.931 236.526 651.624 236.268 650.32 236.002L650.42 235.512C649.108 235.245 647.8 234.97 646.494 234.688L646.388 235.176C645.079 234.894 643.774 234.604 642.471 234.306L642.582 233.819C641.281 233.522 639.982 233.218 638.687 232.906L638.57 233.392C637.272 233.08 635.978 232.761 634.686 232.434L634.809 231.95C633.514 231.622 632.221 231.287 630.932 230.945L630.804 231.429C629.509 231.086 628.218 230.735 626.93 230.377L627.064 229.895C625.777 229.538 624.494 229.174 623.214 228.802L623.074 229.282C621.792 228.91 620.513 228.53 619.237 228.144L619.382 227.665C618.105 227.278 616.831 226.884 615.561 226.483L615.41 226.96C614.133 226.557 612.859 226.146 611.589 225.729L611.745 225.254C610.476 224.837 609.211 224.413 607.949 223.982L607.787 224.455C606.523 224.023 605.262 223.585 604.005 223.139L604.172 222.668C602.916 222.222 601.663 221.77 600.413 221.31L600.241 221.779C598.984 221.317 597.731 220.848 596.481 220.372L596.659 219.905C595.411 219.429 594.166 218.947 592.925 218.457L592.742 218.922C591.499 218.432 590.259 217.935 589.023 217.431L589.212 216.968C587.978 216.464 586.748 215.954 585.521 215.437L585.327 215.898C584.093 215.378 582.864 214.851 581.638 214.318L581.838 213.859C580.613 213.326 579.392 212.786 578.175 212.239L577.97 212.695C576.751 212.148 575.535 211.594 574.324 211.032L574.534 210.579C573.324 210.018 572.118 209.451 570.916 208.877L570.701 209.329C569.494 208.753 568.291 208.17 567.092 207.58L567.313 207.132C566.114 206.542 564.919 205.946 563.729 205.343L563.503 205.79C562.31 205.186 561.122 204.576 559.937 203.959L560.168 203.515C558.986 202.899 557.807 202.277 556.632 201.647L556.396 202.088C555.218 201.457 554.044 200.82 552.874 200.175L553.115 199.737C551.945 199.093 550.779 198.443 549.618 197.785L549.372 198.221C548.208 197.562 547.049 196.898 545.894 196.226L546.146 195.794C544.992 195.124 543.843 194.447 542.699 193.764L542.442 194.193C541.295 193.509 540.152 192.818 539.014 192.12L539.275 191.694C538.136 190.997 537.002 190.293 535.872 189.583L535.605 190.006C534.474 189.295 533.347 188.577 532.224 187.853L532.495 187.433C531.373 186.71 530.257 185.981 529.144 185.245L528.869 185.662C527.754 184.926 526.645 184.183 525.54 183.434L525.82 183.02C524.715 182.271 523.614 181.515 522.518 180.754L522.233 181.164C521.135 180.402 520.042 179.633 518.954 178.858L519.244 178.451C518.157 177.677 517.075 176.897 515.998 176.111L515.703 176.515C514.624 175.728 513.55 174.934 512.48 174.135L512.78 173.735C511.71 172.935 510.646 172.13 509.586 171.319L509.282 171.716C508.221 170.904 507.164 170.086 506.113 169.261L506.421 168.868C505.371 168.045 504.326 167.216 503.286 166.381L502.973 166.771C501.931 165.935 500.894 165.093 499.862 164.245L500.179 163.858C499.148 163.011 498.122 162.158 497.101 161.299L496.779 161.682C495.756 160.822 494.739 159.956 493.726 159.084L494.052 158.705C493.041 157.835 492.035 156.959 491.034 156.077L490.704 156.452C489.701 155.569 488.704 154.68 487.712 153.785L488.047 153.414C487.056 152.52 486.07 151.621 485.09 150.717L484.75 151.084C483.768 150.178 482.792 149.266 481.82 148.349L482.163 147.985C481.193 147.069 480.228 146.148 479.269 145.221L478.922 145.58C477.961 144.652 477.005 143.718 476.055 142.779L476.407 142.423C475.458 141.485 474.514 140.542 473.576 139.593L473.221 139.945C472.282 138.995 471.348 138.039 470.419 137.078L470.779 136.731C469.852 135.771 468.93 134.807 468.015 133.836L467.651 134.18C466.734 133.208 465.822 132.231 464.916 131.249L465.283 130.91C464.379 129.93 463.479 128.944 462.586 127.953L462.215 128.288C461.32 127.296 460.431 126.299 459.548 125.296L459.923 124.966C459.041 123.965 458.165 122.959 457.295 121.948L456.916 122.274C456.044 121.261 455.178 120.243 454.318 119.221L454.7 118.899C453.842 117.878 452.989 116.852 452.141 115.82L451.755 116.138C450.907 115.106 450.065 114.069 449.229 113.027L449.619 112.714C448.784 111.674 447.955 110.629 447.132 109.579L446.739 109.887C445.914 108.836 445.096 107.779 444.284 106.718L444.681 106.414C443.87 105.354 443.064 104.29 442.265 103.22L441.865 103.52C441.066 102.45 440.272 101.376 439.485 100.297L439.889 100.002C439.103 98.9247 438.323 97.8426 437.549 96.7558L437.142 97.0458C436.367 95.9574 435.598 94.8644 434.835 93.7668L435.246 93.4814C434.485 92.3854 433.729 91.2847 432.98 90.1795L432.566 90.4601C431.817 89.355 431.074 88.2453 430.337 87.1312L430.754 86.8554C430.019 85.7431 429.29 84.6263 428.567 83.5052L428.147 83.7761C427.423 82.6533 426.705 81.526 425.994 80.3943L426.417 80.1283C425.707 78.9982 425.003 77.8638 424.306 76.725L423.879 76.9862C423.182 75.8476 422.491 74.7047 421.806 73.5575L422.236 73.3013C421.553 72.1565 420.876 71.0075 420.206 69.8542L419.773 70.1055C419.102 68.9506 418.438 67.7915 417.779 66.6282L418.215 66.382C417.557 65.2203 416.907 64.0545 416.262 62.8846L415.824 63.1258C415.18 61.9559 414.543 60.7818 413.912 59.6038L414.352 59.3677C413.723 58.1929 413.101 57.0142 412.485 55.8314L412.041 56.0623C411.424 54.8778 410.814 53.6893 410.21 52.4969L410.656 52.2711C410.054 51.0804 409.458 49.8857 408.868 48.6871L408.42 48.9077C407.83 47.7087 407.247 46.5058 406.671 45.299L407.123 45.0836C406.549 43.8815 405.982 42.6755 405.421 41.4657L404.968 41.6759C404.406 40.4644 403.852 39.2491 403.304 38.0301L403.761 37.8252C403.214 36.6079 402.674 35.3869 402.141 34.1623L401.682 34.3618C401.149 33.1359 400.622 31.9063 400.102 30.6731L400.563 30.4789C400.046 29.252 399.536 28.0215 399.032 26.7875L398.569 26.9763C398.065 25.7405 397.568 24.5011 397.078 23.2582L397.543 23.0747C397.053 21.8336 396.571 20.5891 396.095 19.341L395.628 19.519C395.152 18.2691 394.683 17.0157 394.221 15.759L394.69 15.5865C394.23 14.3369 393.778 13.0839 393.332 11.8276L392.861 11.9948C392.415 10.7374 391.976 9.47665 391.545 8.21265L392.018 8.05103C391.587 6.78888 391.163 5.52341 390.746 4.25473L390.271 4.41083C389.853 3.14032 389.443 1.86655 389.04 0.5896L389.517 0.439056C389.116 -0.831482 388.722 -2.10519 388.335 -3.38202L387.856 -3.23703C387.47 -4.51306 387.09 -5.79221 386.718 -7.0744L387.198 -7.21381C386.826 -8.49417 386.462 -9.77756 386.105 -11.064L385.623 -10.9301C385.265 -12.2184 384.914 -13.5097 384.571 -14.804L385.054 -14.9322C384.712 -16.2215 384.378 -17.5138 384.05 -18.809L383.566 -18.6864C383.239 -19.9781 382.92 -21.2727 382.608 -22.5701L383.094 -22.687C382.782 -23.9825 382.478 -25.2809 382.181 -26.5821L381.694 -26.4708C381.396 -27.7739 381.106 -29.0797 380.824 -30.3883L381.312 -30.4939C381.03 -31.7999 380.755 -33.1087 380.488 -34.4203L379.998 -34.3204C379.732 -35.6247 379.474 -36.9316 379.222 -38.2411L379.714 -38.3354C379.463 -39.643 379.219 -40.9533 378.983 -42.2661L378.491 -42.1776C378.255 -43.4924 378.026 -44.8097 377.804 -46.1295L378.297 -46.2123C378.076 -47.5302 377.862 -48.8507 377.656 -50.1736L377.162 -50.0966C376.956 -51.4133 376.758 -52.7324 376.568 -54.0539L377.063 -54.1253C376.873 -55.4419 376.691 -56.761 376.516 -58.0824L376.02 -58.0167C375.845 -59.34 375.677 -60.6657 375.517 -61.9937L376.013 -62.0536C375.853 -63.3796 375.701 -64.708 375.556 -66.0386L375.059 -65.9844C374.914 -67.3123 374.777 -68.6425 374.647 -69.9749L375.145 -70.0233C375.016 -71.3458 374.895 -72.6704 374.781 -73.9972L374.283 -73.9544C374.169 -75.2831 374.062 -76.6139 373.963 -77.9468L374.462 -77.9838C374.363 -79.3148 374.272 -80.6479 374.188 -81.9831L373.689 -81.9518C373.605 -83.2888 373.529 -84.6279 373.46 -85.969L373.96 -85.9946C373.892 -87.3202 373.831 -88.6478 373.779 -89.9774L373.279 -89.9575C373.226 -91.2883 373.181 -92.621 373.143 -93.9556L373.642 -93.9698C373.604 -95.3026 373.574 -96.6372 373.551 -97.9736L373.051 -97.9651C373.029 -99.3034 373.013 -100.644 373.006 -101.986L373.506 -101.988C373.502 -102.659 373.5 -103.329 373.5 -104C373.5 -104.671 373.502 -105.342 373.506 -106.012L373.006 -106.015C373.013 -107.357 373.029 -108.697 373.051 -110.035L373.551 -110.027C373.574 -111.363 373.605 -112.698 373.642 -114.031L373.143 -114.045C373.181 -115.379 373.226 -116.712 373.279 -118.043L373.779 -118.023C373.831 -119.353 373.892 -120.68 373.96 -122.006L373.46 -122.031C373.529 -123.372 373.605 -124.712 373.689 -126.049L374.188 -126.017C374.272 -127.352 374.363 -128.686 374.462 -130.017L373.963 -130.054C374.062 -131.386 374.169 -132.717 374.283 -134.046L374.781 -134.003C374.895 -135.33 375.016 -136.655 375.145 -137.977L374.647 -138.025C374.777 -139.358 374.914 -140.688 375.059 -142.016L375.556 -141.962C375.701 -143.292 375.853 -144.621 376.013 -145.947L375.517 -146.007C375.677 -147.335 375.845 -148.66 376.02 -149.984L376.516 -149.918C376.691 -151.239 376.873 -152.558 377.063 -153.875L376.568 -153.946C376.758 -155.268 376.956 -156.587 377.162 -157.904L377.656 -157.827C377.862 -159.15 378.076 -160.47 378.297 -161.788L377.804 -161.871C378.026 -163.191 378.255 -164.508 378.491 -165.823L378.983 -165.734C379.219 -167.047 379.463 -168.357 379.714 -169.665L379.223 -169.759C379.474 -171.069 379.732 -172.376 379.998 -173.68L380.488 -173.58C380.755 -174.892 381.03 -176.2 381.312 -177.506L380.824 -177.612C381.106 -178.921 381.396 -180.226 381.694 -181.529L382.181 -181.418C382.478 -182.719 382.782 -184.018 383.094 -185.313L382.608 -185.43C382.92 -186.728 383.239 -188.022 383.566 -189.314L384.05 -189.191C384.378 -190.486 384.713 -191.779 385.055 -193.068L384.571 -193.196C384.914 -194.491 385.265 -195.782 385.623 -197.07L386.105 -196.936C386.462 -198.223 386.826 -199.506 387.198 -200.786L386.718 -200.926C387.09 -202.208 387.47 -203.487 387.856 -204.763L388.335 -204.618C388.722 -205.895 389.116 -207.169 389.517 -208.439L389.04 -208.59C389.443 -209.867 389.853 -211.141 390.271 -212.411L390.746 -212.255C391.163 -213.524 391.587 -214.789 392.018 -216.051L391.545 -216.213C391.977 -217.477 392.415 -218.738 392.861 -219.995L393.332 -219.828C393.778 -221.084 394.23 -222.337 394.69 -223.587L394.221 -223.759C394.683 -225.016 395.152 -226.269 395.628 -227.519L396.095 -227.341C396.571 -228.589 397.053 -229.834 397.543 -231.075L397.078 -231.258C397.568 -232.501 398.065 -233.741 398.569 -234.977L399.032 -234.788C399.536 -236.022 400.046 -237.252 400.563 -238.479L400.102 -238.673C400.622 -239.907 401.149 -241.136 401.682 -242.362L402.141 -242.162C402.674 -243.387 403.214 -244.608 403.761 -245.825L403.305 -246.03C403.852 -247.249 404.406 -248.465 404.968 -249.676L405.421 -249.466C405.982 -250.676 406.549 -251.882 407.123 -253.084L406.671 -253.299C407.247 -254.506 407.83 -255.709 408.42 -256.908L408.868 -256.687C409.458 -257.886 410.054 -259.081 410.657 -260.271L410.21 -260.497C410.814 -261.69 411.424 -262.878 412.041 -264.063L412.485 -263.832C413.101 -265.014 413.723 -266.193 414.353 -267.368L413.912 -267.604C414.543 -268.782 415.18 -269.956 415.825 -271.126L416.263 -270.885C416.907 -272.055 417.557 -273.221 418.215 -274.382L417.78 -274.628C418.438 -275.792 419.102 -276.951 419.774 -278.106L420.206 -277.854C420.876 -279.008 421.553 -280.157 422.236 -281.301L421.807 -281.558C422.491 -282.705 423.182 -283.848 423.88 -284.986L424.306 -284.725C425.003 -285.864 425.707 -286.998 426.418 -288.128L425.994 -288.395C426.705 -289.526 427.423 -290.653 428.147 -291.776L428.567 -291.505C429.29 -292.627 430.019 -293.743 430.755 -294.856L430.338 -295.131C431.074 -296.246 431.817 -297.355 432.566 -298.46L432.98 -298.18C433.729 -299.285 434.485 -300.386 435.246 -301.482L434.836 -301.767C435.598 -302.865 436.367 -303.958 437.142 -305.046L437.549 -304.756C438.323 -305.843 439.103 -306.925 439.889 -308.002L439.485 -308.297C440.272 -309.376 441.066 -310.45 441.865 -311.52L442.265 -311.22C443.065 -312.29 443.87 -313.354 444.681 -314.414L444.284 -314.718C445.096 -315.779 445.914 -316.836 446.739 -317.887L447.132 -317.579C447.955 -318.629 448.784 -319.674 449.619 -320.714L449.229 -321.027C450.065 -322.069 450.907 -323.106 451.755 -324.138L452.142 -323.821C452.989 -324.852 453.842 -325.878 454.701 -326.899L454.318 -327.221C455.178 -328.244 456.044 -329.261 456.916 -330.274L457.295 -329.948C458.165 -330.959 459.041 -331.965 459.923 -332.966L459.548 -333.296C460.431 -334.299 461.32 -335.296 462.215 -336.288L462.586 -335.953C463.48 -336.944 464.379 -337.93 465.283 -338.91L464.916 -339.25C465.822 -340.232 466.734 -341.208 467.651 -342.18L468.015 -341.837C468.931 -342.807 469.852 -343.772 470.779 -344.731L470.42 -345.078C471.348 -346.039 472.282 -346.995 473.221 -347.945L473.577 -347.593C474.515 -348.542 475.458 -349.486 476.407 -350.424L476.055 -350.779C477.005 -351.718 477.961 -352.652 478.922 -353.581L479.269 -353.221C480.229 -354.148 481.193 -355.07 482.164 -355.985L481.82 -356.349C482.792 -357.266 483.769 -358.178 484.751 -359.084L485.09 -358.717C486.07 -359.621 487.056 -360.521 488.047 -361.414L487.712 -361.785C488.704 -362.68 489.701 -363.569 490.704 -364.452L491.034 -364.077C492.035 -364.959 493.041 -365.835 494.053 -366.705L493.726 -367.084C494.739 -367.956 495.757 -368.822 496.779 -369.682L497.101 -369.3C498.122 -370.158 499.148 -371.011 500.18 -371.859L499.862 -372.245C500.894 -373.093 501.931 -373.935 502.973 -374.771L503.286 -374.381C504.326 -375.216 505.371 -376.045 506.421 -376.868L506.113 -377.261C507.164 -378.086 508.221 -378.904 509.282 -379.716L509.586 -379.319C510.646 -380.13 511.71 -380.936 512.78 -381.735L512.48 -382.135C513.55 -382.934 514.624 -383.728 515.703 -384.515L515.998 -384.111C517.075 -384.897 518.157 -385.677 519.244 -386.451L518.954 -386.858C520.043 -387.633 521.136 -388.402 522.233 -389.165L522.519 -388.754C523.615 -389.515 524.715 -390.271 525.82 -391.02L525.54 -391.434C526.645 -392.183 527.755 -392.926 528.869 -393.663L529.145 -393.246C530.257 -393.981 531.374 -394.71 532.495 -395.433L532.224 -395.853C533.347 -396.577 534.474 -397.295 535.606 -398.006L535.872 -397.583C537.002 -398.293 538.136 -398.997 539.275 -399.694L539.014 -400.121C540.152 -400.818 541.295 -401.509 542.443 -402.194L542.699 -401.764C543.843 -402.447 544.992 -403.124 546.146 -403.794L545.895 -404.226C547.049 -404.898 548.209 -405.562 549.372 -406.221L549.618 -405.785C550.78 -406.443 551.945 -407.093 553.115 -407.738L552.874 -408.176C554.044 -408.82 555.218 -409.457 556.396 -410.088L556.632 -409.648C557.807 -410.277 558.986 -410.899 560.169 -411.515L559.938 -411.959C561.122 -412.576 562.311 -413.186 563.503 -413.79L563.729 -413.344C564.92 -413.946 566.114 -414.542 567.313 -415.132L567.092 -415.58C568.291 -416.17 569.494 -416.753 570.701 -417.329L570.916 -416.877C572.119 -417.451 573.324 -418.018 574.534 -418.579L574.324 -419.032C575.536 -419.594 576.751 -420.148 577.97 -420.696L578.175 -420.239C579.392 -420.786 580.613 -421.326 581.838 -421.859L581.638 -422.318C582.864 -422.851 584.094 -423.378 585.327 -423.898L585.521 -423.437C586.748 -423.954 587.978 -424.464 589.213 -424.968L589.024 -425.431C590.26 -425.935 591.499 -426.432 592.742 -426.922L592.925 -426.457C594.166 -426.947 595.411 -427.429 596.659 -427.905L596.481 -428.372C597.731 -428.848 598.984 -429.317 600.241 -429.779L600.414 -429.31C601.663 -429.77 602.916 -430.222 604.172 -430.668L604.005 -431.139C605.263 -431.585 606.523 -432.024 607.787 -432.455L607.949 -431.982C609.211 -432.413 610.477 -432.837 611.745 -433.254L611.589 -433.729C612.86 -434.147 614.133 -434.557 615.41 -434.96L615.561 -434.483C616.831 -434.884 618.105 -435.278 619.382 -435.665L619.237 -436.144C620.513 -436.53 621.792 -436.91 623.074 -437.282L623.214 -436.802C624.494 -437.174 625.778 -437.538 627.064 -437.895L626.93 -438.377C628.218 -438.735 629.51 -439.086 630.804 -439.429L630.932 -438.946C632.221 -439.288 633.514 -439.622 634.809 -439.95L634.686 -440.434C635.978 -440.761 637.273 -441.08 638.57 -441.392L638.687 -440.906C639.983 -441.218 641.281 -441.522 642.582 -441.819L642.471 -442.306C643.774 -442.604 645.08 -442.894 646.388 -443.176L646.494 -442.688C647.8 -442.97 649.109 -443.245 650.42 -443.512L650.32 -444.002C651.625 -444.268 652.932 -444.526 654.241 -444.778L654.335 -444.286C655.643 -444.537 656.953 -444.781 658.266 -445.017L658.178 -445.509C659.492 -445.745 660.81 -445.974 662.13 -446.196L662.212 -445.703C663.53 -445.924 664.851 -446.138 666.174 -446.344L666.097 -446.838C667.413 -447.044 668.732 -447.242 670.054 -447.432L670.125 -446.937C671.442 -447.127 672.761 -447.309 674.082 -447.484L674.017 -447.98C675.34 -448.155 676.666 -448.323 677.994 -448.483L678.054 -447.987C679.38 -448.147 680.708 -448.299 682.039 -448.444L681.984 -448.941C683.312 -449.086 684.643 -449.223 685.975 -449.353L686.023 -448.855C687.346 -448.984 688.67 -449.105 689.997 -449.219L689.954 -449.717C691.283 -449.831 692.614 -449.938 693.947 -450.037L693.984 -449.538C695.315 -449.637 696.648 -449.728 697.983 -449.812L697.952 -450.311C699.289 -450.395 700.628 -450.471 701.969 -450.54L701.995 -450.04C703.32 -450.108 704.648 -450.169 705.977 -450.221L705.957 -450.721C707.288 -450.774 708.621 -450.819 709.956 -450.857L709.97 -450.358C711.303 -450.396 712.637 -450.426 713.974 -450.449L713.965 -450.949C715.303 -450.971 716.644 -450.987 717.986 -450.994L717.988 -450.494C718.659 -450.498 719.329 -450.5 720 -450.5C720.671 -450.5 721.342 -450.498 722.012 -450.494L722.015 -450.994C723.357 -450.987 724.697 -450.971 726.035 -450.949L726.027 -450.449C727.363 -450.426 728.698 -450.395 730.031 -450.358L730.045 -450.857C731.379 -450.819 732.712 -450.774 734.043 -450.721L734.023 -450.221C735.353 -450.169 736.68 -450.108 738.006 -450.04L738.031 -450.54C739.372 -450.471 740.712 -450.395 742.049 -450.311L742.017 -449.812C743.352 -449.728 744.686 -449.637 746.017 -449.538L746.054 -450.037C747.386 -449.938 748.717 -449.831 750.046 -449.717L750.003 -449.219C751.33 -449.105 752.655 -448.984 753.977 -448.855L754.025 -449.353C755.358 -449.223 756.688 -449.086 758.016 -448.941L757.962 -448.444C759.292 -448.299 760.621 -448.147 761.947 -447.987L762.007 -448.483C763.335 -448.323 764.66 -448.155 765.984 -447.98L765.918 -447.484C767.239 -447.309 768.558 -447.127 769.875 -446.937L769.946 -447.432C771.268 -447.242 772.587 -447.044 773.904 -446.838L773.827 -446.344C775.15 -446.138 776.47 -445.924 777.788 -445.703L777.871 -446.196C779.191 -445.974 780.508 -445.745 781.823 -445.509L781.734 -445.017C783.047 -444.781 784.357 -444.537 785.665 -444.286L785.759 -444.777C787.069 -444.526 788.376 -444.268 789.68 -444.002L789.58 -443.512C790.892 -443.245 792.2 -442.97 793.506 -442.688L793.612 -443.176C794.921 -442.894 796.226 -442.604 797.529 -442.306L797.418 -441.819C798.719 -441.522 800.018 -441.218 801.313 -440.906L801.43 -441.392C802.728 -441.08 804.022 -440.761 805.314 -440.434L805.191 -439.95C806.486 -439.622 807.779 -439.287 809.068 -438.945L809.196 -439.429C810.491 -439.086 811.782 -438.735 813.07 -438.377L812.936 -437.895C814.223 -437.538 815.506 -437.174 816.786 -436.802L816.926 -437.282C818.208 -436.91 819.487 -436.53 820.763 -436.144L820.618 -435.665C821.895 -435.278 823.169 -434.884 824.439 -434.483L824.59 -434.96C825.867 -434.557 827.141 -434.147 828.411 -433.729L828.255 -433.254C829.524 -432.837 830.789 -432.413 832.051 -431.982L832.213 -432.455C833.477 -432.023 834.738 -431.585 835.995 -431.139L835.828 -430.668C837.084 -430.222 838.337 -429.77 839.587 -429.31L839.759 -429.779C841.016 -429.317 842.269 -428.848 843.519 -428.372L843.341 -427.905C844.589 -427.429 845.834 -426.947 847.075 -426.457L847.258 -426.922C848.501 -426.432 849.741 -425.935 850.977 -425.431L850.788 -424.968C852.022 -424.464 853.252 -423.954 854.479 -423.437L854.673 -423.898C855.907 -423.378 857.136 -422.851 858.362 -422.318L858.162 -421.859C859.387 -421.326 860.608 -420.786 861.825 -420.239L862.03 -420.695C863.249 -420.148 864.465 -419.594 865.676 -419.032L865.466 -418.579C866.676 -418.018 867.882 -417.451 869.084 -416.877L869.299 -417.329C870.506 -416.753 871.709 -416.17 872.908 -415.58L872.687 -415.132C873.886 -414.542 875.081 -413.946 876.271 -413.343L876.497 -413.79C877.69 -413.186 878.878 -412.576 880.063 -411.959L879.832 -411.515C881.014 -410.899 882.193 -410.277 883.368 -409.647L883.604 -410.088C884.782 -409.457 885.956 -408.82 887.126 -408.175L886.885 -407.737C888.055 -407.093 889.221 -406.443 890.382 -405.785L890.628 -406.22C891.792 -405.562 892.951 -404.898 894.106 -404.226L893.854 -403.794C895.008 -403.124 896.157 -402.447 897.301 -401.764L897.558 -402.193C898.705 -401.509 899.848 -400.818 900.986 -400.12L900.725 -399.694C901.864 -398.997 902.998 -398.293 904.128 -397.582L904.395 -398.006C905.526 -397.295 906.654 -396.577 907.776 -395.853L907.505 -395.433C908.627 -394.71 909.743 -393.981 910.856 -393.245L911.131 -393.662C912.245 -392.926 913.355 -392.183 914.46 -391.434L914.18 -391.02C915.285 -390.271 916.386 -389.515 917.482 -388.754L917.767 -389.164C918.865 -388.402 919.958 -387.633 921.046 -386.858L920.756 -386.451C921.843 -385.677 922.925 -384.897 924.002 -384.111L924.297 -384.515C925.376 -383.728 926.45 -382.934 927.52 -382.135L927.22 -381.735C928.29 -380.935 929.354 -380.13 930.414 -379.319L930.718 -379.716C931.779 -378.904 932.836 -378.086 933.887 -377.261L933.579 -376.868C934.629 -376.045 935.674 -375.216 936.714 -374.381L937.027 -374.771C938.069 -373.935 939.106 -373.093 940.138 -372.245L939.821 -371.858C940.852 -371.011 941.878 -370.158 942.899 -369.299L943.221 -369.682C944.244 -368.822 945.261 -367.956 946.274 -367.084L945.948 -366.705C946.959 -365.835 947.965 -364.959 948.966 -364.077L949.296 -364.452C950.299 -363.569 951.296 -362.68 952.288 -361.785L951.953 -361.414C952.944 -360.52 953.93 -359.621 954.91 -358.717L955.25 -359.084C956.232 -358.178 957.208 -357.266 958.18 -356.349L957.837 -355.985C958.807 -355.069 959.772 -354.148 960.731 -353.221L961.078 -353.58C962.039 -352.652 962.995 -351.718 963.945 -350.779L963.593 -350.423C964.542 -349.485 965.486 -348.542 966.424 -347.593L966.779 -347.945C967.718 -346.995 968.652 -346.039 969.581 -345.078L969.221 -344.731C970.148 -343.771 971.07 -342.807 971.985 -341.836L972.349 -342.18C973.266 -341.208 974.178 -340.231 975.084 -339.249L974.717 -338.91C975.621 -337.93 976.521 -336.944 977.414 -335.953L977.785 -336.288C978.68 -335.296 979.569 -334.299 980.452 -333.296L980.077 -332.966C980.959 -331.965 981.835 -330.959 982.705 -329.947L983.084 -330.274C983.956 -329.261 984.822 -328.243 985.682 -327.221L985.3 -326.899C986.158 -325.878 987.011 -324.852 987.859 -323.82L988.245 -324.138C989.093 -323.106 989.935 -322.069 990.771 -321.027L990.381 -320.714C991.216 -319.674 992.045 -318.629 992.868 -317.579L993.261 -317.887C994.086 -316.836 994.904 -315.779 995.716 -314.718L995.319 -314.414C996.13 -313.354 996.936 -312.29 997.735 -311.22L998.135 -311.52C998.934 -310.45 999.728 -309.376 1000.51 -308.297L1000.11 -308.002C1000.9 -306.925 1001.68 -305.843 1002.45 -304.756L1002.86 -305.046C1003.63 -303.957 1004.4 -302.864 1005.16 -301.767L1004.75 -301.481C1005.52 -300.385 1006.27 -299.285 1007.02 -298.18L1007.43 -298.46C1008.18 -297.355 1008.93 -296.245 1009.66 -295.131L1009.25 -294.855C1009.98 -293.743 1010.71 -292.626 1011.43 -291.505L1011.85 -291.776C1012.58 -290.653 1013.29 -289.526 1014.01 -288.394L1013.58 -288.128C1014.29 -286.998 1015 -285.864 1015.69 -284.725L1016.12 -284.986C1016.82 -283.848 1017.51 -282.705 1018.19 -281.557L1017.76 -281.301C1018.45 -280.157 1019.12 -279.008 1019.79 -277.854L1020.23 -278.105C1020.9 -276.951 1021.56 -275.791 1022.22 -274.628L1021.79 -274.382C1022.44 -273.22 1023.09 -272.055 1023.74 -270.885L1024.18 -271.126C1024.82 -269.956 1025.46 -268.782 1026.09 -267.604L1025.65 -267.368C1026.28 -266.193 1026.9 -265.014 1027.52 -263.831L1027.96 -264.062C1028.58 -262.878 1029.19 -261.689 1029.79 -260.497L1029.34 -260.271C1029.95 -259.08 1030.54 -257.886 1031.13 -256.687L1031.58 -256.908C1032.17 -255.709 1032.75 -254.506 1033.33 -253.299L1032.88 -253.084C1033.45 -251.881 1034.02 -250.676 1034.58 -249.466L1035.03 -249.676C1035.59 -248.464 1036.15 -247.249 1036.7 -246.03L1036.24 -245.825C1036.79 -244.608 1037.33 -243.387 1037.86 -242.162L1038.32 -242.362C1038.85 -241.136 1039.38 -239.906 1039.9 -238.673L1039.44 -238.479C1039.95 -237.252 1040.46 -236.022 1040.97 -234.787L1041.43 -234.976C1041.93 -233.74 1042.43 -232.501 1042.92 -231.258L1042.46 -231.075C1042.95 -229.834 1043.43 -228.589 1043.9 -227.341L1044.37 -227.519C1044.85 -226.269 1045.32 -225.016 1045.78 -223.759L1045.31 -223.586C1045.77 -222.337 1046.22 -221.084 1046.67 -219.828L1047.14 -219.995C1047.58 -218.737 1048.02 -217.477 1048.46 -216.213L1047.98 -216.051C1048.41 -214.789 1048.84 -213.523 1049.25 -212.255L1049.73 -212.411C1050.15 -211.14 1050.56 -209.867 1050.96 -208.59L1050.48 -208.439C1050.88 -207.169 1051.28 -205.895 1051.67 -204.618L1052.14 -204.763C1052.53 -203.487 1052.91 -202.208 1053.28 -200.926L1052.8 -200.786C1053.17 -199.506 1053.54 -198.222 1053.9 -196.936L1054.38 -197.07C1054.73 -195.782 1055.09 -194.49 1055.43 -193.196L1054.95 -193.068C1055.29 -191.779 1055.62 -190.486 1055.95 -189.191L1056.43 -189.314C1056.76 -188.022 1057.08 -186.727 1057.39 -185.43L1056.91 -185.313C1057.22 -184.017 1057.52 -182.719 1057.82 -181.418L1058.31 -181.529C1058.6 -180.226 1058.89 -178.92 1059.18 -177.612L1058.69 -177.506C1058.97 -176.2 1059.24 -174.891 1059.51 -173.58L1060 -173.68C1060.27 -172.375 1060.53 -171.068 1060.78 -169.759L1060.29 -169.665C1060.54 -168.357 1060.78 -167.047 1061.02 -165.734L1061.51 -165.822C1061.75 -164.508 1061.97 -163.19 1062.2 -161.87L1061.7 -161.788C1061.92 -160.47 1062.14 -159.149 1062.34 -157.826L1062.84 -157.903C1063.04 -156.587 1063.24 -155.268 1063.43 -153.946L1062.94 -153.875C1063.13 -152.558 1063.31 -151.239 1063.48 -149.918L1063.98 -149.983C1064.16 -148.66 1064.32 -147.334 1064.48 -146.006L1063.99 -145.946C1064.15 -144.62 1064.3 -143.292 1064.44 -141.961L1064.94 -142.016C1065.09 -140.688 1065.22 -139.357 1065.35 -138.025L1064.86 -137.977C1064.98 -136.654 1065.11 -135.33 1065.22 -134.003L1065.72 -134.046C1065.83 -132.717 1065.94 -131.386 1066.04 -130.053L1065.54 -130.016C1065.64 -128.685 1065.73 -127.352 1065.81 -126.017L1066.31 -126.048C1066.39 -124.711 1066.47 -123.372 1066.54 -122.031L1066.04 -122.005C1066.11 -120.68 1066.17 -119.352 1066.22 -118.023L1066.72 -118.043C1066.77 -116.712 1066.82 -115.379 1066.86 -114.044L1066.36 -114.03C1066.4 -112.697 1066.43 -111.363 1066.45 -110.026L1066.95 -110.035Z" stroke="black" stroke-dasharray="4 4"/>
<circle opacity="0.08" cx="720" cy="-104" r="472.5" stroke="black" stroke-dasharray="4 4"/>
<circle opacity="0.08" cx="720" cy="-104" r="689.5" stroke="black" stroke-dasharray="4 4"/>
</g>
<defs>
<filter id="filter0_f_2542_12040" x="613" y="85" width="1092" height="1092" filterUnits="userSpaceOnUse" color-interpolation-filters="sRGB">
<feFlood flood-opacity="0" result="BackgroundImageFix"/>
<feBlend mode="normal" in="SourceGraphic" in2="BackgroundImageFix" result="shape"/>
<feGaussianBlur stdDeviation="200" result="effect1_foregroundBlur_2542_12040"/>
</filter>
<filter id="filter1_f_2542_12040" x="-292" y="73" width="1024" height="1024" filterUnits="userSpaceOnUse" color-interpolation-filters="sRGB">
<feFlood flood-opacity="0" result="BackgroundImageFix"/>
<feBlend mode="normal" in="SourceGraphic" in2="BackgroundImageFix" result="shape"/>
<feGaussianBlur stdDeviation="200" result="effect1_foregroundBlur_2542_12040"/>
</filter>
<filter id="filter2_f_2542_12040" x="-10.6118" y="-530.656" width="1050.06" height="1050.06" filterUnits="userSpaceOnUse" color-interpolation-filters="sRGB">
<feFlood flood-opacity="0" result="BackgroundImageFix"/>
<feBlend mode="normal" in="SourceGraphic" in2="BackgroundImageFix" result="shape"/>
<feGaussianBlur stdDeviation="200" result="effect1_foregroundBlur_2542_12040"/>
</filter>
<linearGradient id="paint0_linear_2542_12040" x1="1231.75" y1="647.222" x2="1105.73" y2="647.222" gradientUnits="userSpaceOnUse">
<stop stop-color="#FF34DD"/>
<stop offset="0.43" stop-color="white"/>
<stop offset="0.955" stop-color="#3534FF"/>
</linearGradient>
<linearGradient id="paint1_linear_2542_12040" x1="275.811" y1="597.444" x2="179.135" y2="597.444" gradientUnits="userSpaceOnUse">
<stop stop-color="#FF34DD"/>
<stop offset="0.43" stop-color="white"/>
<stop offset="0.955" stop-color="#3534FF"/>
</linearGradient>
<linearGradient id="paint2_linear_2542_12040" x1="576.708" y1="8.26361" x2="468.811" y2="8.26361" gradientUnits="userSpaceOnUse">
<stop stop-color="#FF34DD"/>
<stop offset="0.43" stop-color="white"/>
<stop offset="0.955" stop-color="#3534FF"/>
</linearGradient>
</defs>
</svg>
