<svg width="33" height="32" viewBox="0 0 33 32" fill="none" xmlns="http://www.w3.org/2000/svg">
<path d="M8.07576 24.7072C8.09937 24.6674 8.12356 24.6278 8.14832 24.5885C9.95431 21.7175 10.9998 18.3224 10.9998 14.6667C10.9998 11.7211 13.3876 9.33333 16.3331 9.33333C19.2786 9.33333 21.6665 11.7211 21.6665 14.6667C21.6665 16.0227 21.5741 17.3581 21.3954 18.6667M18.5722 27.7915C19.3878 26.1635 20.0565 24.4492 20.5609 22.6667M25.6795 24.1759C26.5395 21.1542 26.9999 17.9642 26.9999 14.6667C26.9999 8.77563 22.2243 4 16.3333 4C14.3904 4 12.5688 4.51944 10.9999 5.42701M4.33325 20.4855C5.18746 18.7272 5.66659 16.7529 5.66659 14.6667C5.66659 12.7238 6.18602 10.9023 7.0936 9.33333M16.3331 14.6667C16.3331 19.3563 14.988 23.7317 12.6627 27.4283" stroke="#3534FF" stroke-width="1.5" stroke-linecap="round" stroke-linejoin="round"/>
</svg>
