<svg width="33" height="32" viewBox="0 0 33 32" fill="none" xmlns="http://www.w3.org/2000/svg">
<path d="M16.6666 12L6.08507 18.878C5.16794 19.4741 4.70937 19.7722 4.55055 20.1502C4.41176 20.4805 4.41176 20.8528 4.55055 21.1832M16.6666 12L27.2481 18.878C28.1652 19.4741 28.6238 19.7722 28.7826 20.1502C28.9214 20.4805 28.9214 20.8528 28.7826 21.1832M16.6666 12V3.33334M16.6666 20L6.08507 13.122C5.16794 12.5259 4.70937 12.2278 4.55055 11.8498C4.41176 11.5195 4.41176 11.1472 4.55055 10.8169M16.6666 20L27.2481 13.122C28.1652 12.5259 28.6238 12.2278 28.7826 11.8498C28.9214 11.5195 28.9214 11.1472 28.7826 10.8169M16.6666 20V28.6667M29.0292 21.2976L17.8292 28.5776C17.4084 28.8512 17.198 28.9879 16.9713 29.0411C16.7709 29.0882 16.5623 29.0882 16.3619 29.0411C16.1352 28.9879 15.9248 28.8512 15.5039 28.5776L4.30394 21.2976C3.94927 21.0671 3.77193 20.9518 3.64345 20.7981C3.52971 20.6619 3.44428 20.5045 3.39215 20.335C3.33325 20.1435 3.33325 19.932 3.33325 19.5089V12.4911C3.33325 12.0681 3.33325 11.8565 3.39215 11.665C3.44428 11.4955 3.52971 11.3381 3.64345 11.2019C3.77193 11.0482 3.94927 10.9329 4.30394 10.7024L15.5039 3.42239C15.9248 3.14885 16.1352 3.01208 16.3619 2.95886C16.5623 2.91182 16.7709 2.91182 16.9713 2.95886C17.198 3.01208 17.4084 3.14885 17.8292 3.42239L29.0292 10.7024C29.3839 10.9329 29.5612 11.0482 29.6897 11.2019C29.8035 11.3381 29.8889 11.4955 29.941 11.665C29.9999 11.8565 29.9999 12.0681 29.9999 12.4911V19.5089C29.9999 19.932 29.9999 20.1435 29.941 20.335C29.8889 20.5045 29.8035 20.6619 29.6897 20.7981C29.5612 20.9518 29.3839 21.0671 29.0292 21.2976Z" stroke="#3534FF" stroke-width="1.5" stroke-linecap="round" stroke-linejoin="round"/>
</svg>
