<svg width="49" height="48" viewBox="0 0 49 48" fill="none" xmlns="http://www.w3.org/2000/svg">
<path d="M18.3335 23L22.3335 27L31.3335 18M40.3335 24C40.3335 33.8169 29.6256 40.9568 25.7295 43.2298C25.2867 43.4881 25.0653 43.6172 24.7529 43.6842C24.5104 43.7362 24.1566 43.7362 23.9141 43.6842C23.6017 43.6172 23.3803 43.4881 22.9375 43.2298C19.0414 40.9568 8.3335 33.8169 8.3335 24V14.4352C8.3335 12.8362 8.3335 12.0367 8.59502 11.3494C8.82605 10.7423 9.20146 10.2006 9.68881 9.77106C10.2405 9.28488 10.9891 9.00415 12.4863 8.4427L23.2099 4.42135C23.6257 4.26543 23.8336 4.18747 24.0475 4.15656C24.2372 4.12915 24.4298 4.12915 24.6195 4.15656C24.8334 4.18747 25.0413 4.26543 25.4571 4.42135L36.1807 8.4427C37.6779 9.00415 38.4265 9.28488 38.9782 9.77106C39.4655 10.2006 39.8409 10.7423 40.072 11.3494C40.3335 12.0367 40.3335 12.8362 40.3335 14.4352V24Z" stroke="#3534FF" stroke-width="2" stroke-linecap="round" stroke-linejoin="round"/>
</svg>
