<svg width="32" height="32" viewBox="0 0 32 32" fill="none" xmlns="http://www.w3.org/2000/svg">
<path d="M2.6665 19.3334L15.5228 25.7615C15.6977 25.849 15.7852 25.8927 15.8769 25.9099C15.9582 25.9252 16.0415 25.9252 16.1228 25.9099C16.2145 25.8927 16.302 25.849 16.4769 25.7615L29.3332 19.3334M2.6665 12.6667L15.5228 6.23856C15.6977 6.15111 15.7852 6.10738 15.8769 6.09017C15.9582 6.07492 16.0415 6.07492 16.1228 6.09017C16.2145 6.10738 16.302 6.15111 16.4769 6.23856L29.3332 12.6667L16.4769 19.0949C16.302 19.1823 16.2145 19.226 16.1228 19.2433C16.0415 19.2585 15.9582 19.2585 15.8769 19.2433C15.7852 19.226 15.6977 19.1823 15.5228 19.0949L2.6665 12.6667Z" stroke="#3534FF" stroke-width="1.5" stroke-linecap="round" stroke-linejoin="round"/>
</svg>
