<svg width="32" height="32" viewBox="0 0 32 32" fill="none" xmlns="http://www.w3.org/2000/svg">
<path d="M16.0003 12L5.41881 18.878C4.50168 19.4741 4.04311 19.7722 3.88429 20.1502C3.7455 20.4805 3.7455 20.8528 3.88429 21.1832M16.0003 12L26.5818 18.878C27.499 19.4741 27.9575 19.7722 28.1164 20.1502C28.2552 20.4805 28.2552 20.8528 28.1164 21.1832M16.0003 12V3.33334M16.0003 20L5.41881 13.122C4.50168 12.5259 4.04311 12.2278 3.88429 11.8498C3.7455 11.5195 3.7455 11.1472 3.88429 10.8169M16.0003 20L26.5818 13.122C27.499 12.5259 27.9575 12.2278 28.1164 11.8498C28.2552 11.5195 28.2552 11.1472 28.1164 10.8169M16.0003 20V28.6667M28.363 21.2976L17.163 28.5776C16.7421 28.8512 16.5317 28.9879 16.305 29.0411C16.1046 29.0882 15.896 29.0882 15.6956 29.0411C15.4689 28.9879 15.2585 28.8512 14.8377 28.5776L3.63768 21.2976C3.28301 21.0671 3.10567 20.9518 2.97719 20.7981C2.86345 20.6619 2.77802 20.5045 2.72589 20.335C2.66699 20.1435 2.66699 19.932 2.66699 19.5089V12.4911C2.66699 12.0681 2.66699 11.8565 2.72589 11.665C2.77802 11.4955 2.86345 11.3381 2.97719 11.2019C3.10567 11.0482 3.28301 10.9329 3.63768 10.7024L14.8377 3.42239C15.2585 3.14885 15.4689 3.01208 15.6956 2.95886C15.896 2.91182 16.1046 2.91182 16.305 2.95886C16.5317 3.01208 16.7421 3.14885 17.163 3.42239L28.363 10.7024C28.7176 10.9329 28.895 11.0482 29.0235 11.2019C29.1372 11.3381 29.2226 11.4955 29.2748 11.665C29.3337 11.8565 29.3337 12.0681 29.3337 12.4911V19.5089C29.3337 19.932 29.3337 20.1435 29.2748 20.335C29.2226 20.5045 29.1372 20.6619 29.0235 20.7981C28.895 20.9518 28.7176 21.0671 28.363 21.2976Z" stroke="#3534FF" stroke-width="1.5" stroke-linecap="round" stroke-linejoin="round"/>
</svg>
