<svg width="32" height="32" viewBox="0 0 32 32" fill="none" xmlns="http://www.w3.org/2000/svg">
<path d="M12.0003 2.66675V5.33341M20.0003 2.66675V5.33341M12.0003 26.6667V29.3334M20.0003 26.6667V29.3334M26.667 12.0001H29.3337M26.667 18.6667H29.3337M2.66699 12.0001H5.33366M2.66699 18.6667H5.33366M11.7337 26.6667H20.267C22.5072 26.6667 23.6273 26.6667 24.483 26.2308C25.2356 25.8473 25.8475 25.2354 26.231 24.4827C26.667 23.6271 26.667 22.507 26.667 20.2667V11.7334C26.667 9.4932 26.667 8.3731 26.231 7.51745C25.8475 6.7648 25.2356 6.15288 24.483 5.76939C23.6273 5.33341 22.5072 5.33341 20.267 5.33341H11.7337C9.49345 5.33341 8.37334 5.33341 7.5177 5.76939C6.76505 6.15288 6.15313 6.7648 5.76963 7.51745C5.33366 8.3731 5.33366 9.4932 5.33366 11.7334V20.2667C5.33366 22.507 5.33366 23.6271 5.76963 24.4827C6.15313 25.2354 6.76505 25.8473 7.5177 26.2308C8.37334 26.6667 9.49345 26.6667 11.7337 26.6667ZM14.1337 20.0001H17.867C18.6137 20.0001 18.9871 20.0001 19.2723 19.8548C19.5232 19.7269 19.7272 19.523 19.855 19.2721C20.0003 18.9869 20.0003 18.6135 20.0003 17.8667V14.1334C20.0003 13.3867 20.0003 13.0133 19.855 12.7281C19.7272 12.4772 19.5232 12.2732 19.2723 12.1454C18.9871 12.0001 18.6137 12.0001 17.867 12.0001H14.1337C13.3869 12.0001 13.0136 12.0001 12.7283 12.1454C12.4775 12.2732 12.2735 12.4772 12.1457 12.7281C12.0003 13.0133 12.0003 13.3867 12.0003 14.1334V17.8667C12.0003 18.6135 12.0003 18.9869 12.1457 19.2721C12.2735 19.523 12.4775 19.7269 12.7283 19.8548C13.0136 20.0001 13.3869 20.0001 14.1337 20.0001Z" stroke="#3534FF" stroke-width="1.5" stroke-linecap="round" stroke-linejoin="round"/>
</svg>
