<svg width="32" height="32" viewBox="0 0 32 32" fill="none" xmlns="http://www.w3.org/2000/svg">
<path d="M28.267 29.3334C28.6404 29.3334 28.827 29.3334 28.9697 29.2608C29.0951 29.1968 29.1971 29.0949 29.261 28.9694C29.3337 28.8268 29.3337 28.6401 29.3337 28.2667V14.4001C29.3337 14.0267 29.3337 13.84 29.261 13.6974C29.1971 13.572 29.0951 13.47 28.9697 13.4061C28.827 13.3334 28.6404 13.3334 28.267 13.3334L25.067 13.3334C24.6936 13.3334 24.5069 13.3334 24.3643 13.4061C24.2389 13.47 24.1369 13.572 24.073 13.6974C24.0003 13.84 24.0003 14.0267 24.0003 14.4001V17.6001C24.0003 17.9734 24.0003 18.1601 23.9277 18.3027C23.8637 18.4282 23.7618 18.5302 23.6363 18.5941C23.4937 18.6667 23.307 18.6667 22.9337 18.6667H19.7337C19.3603 18.6667 19.1736 18.6667 19.031 18.7394C18.9056 18.8033 18.8036 18.9053 18.7397 19.0308C18.667 19.1734 18.667 19.36 18.667 19.7334V22.9334C18.667 23.3068 18.667 23.4935 18.5943 23.6361C18.5304 23.7615 18.4284 23.8635 18.303 23.9274C18.1604 24.0001 17.9737 24.0001 17.6003 24.0001H14.4003C14.027 24.0001 13.8403 24.0001 13.6977 24.0727C13.5722 24.1367 13.4702 24.2386 13.4063 24.3641C13.3337 24.5067 13.3337 24.6934 13.3337 25.0667V28.2667C13.3337 28.6401 13.3337 28.8268 13.4063 28.9694C13.4702 29.0948 13.5722 29.1968 13.6977 29.2608C13.8403 29.3334 14.027 29.3334 14.4003 29.3334L28.267 29.3334Z" stroke="#3534FF" stroke-width="1.5" stroke-linecap="round" stroke-linejoin="round"/>
<path d="M13.3337 9.06675C13.3337 8.69338 13.3337 8.5067 13.4063 8.36409C13.4702 8.23865 13.5722 8.13666 13.6977 8.07274C13.8403 8.00008 14.027 8.00008 14.4003 8.00008H17.6003C17.9737 8.00008 18.1604 8.00008 18.303 8.07274C18.4284 8.13666 18.5304 8.23865 18.5943 8.36409C18.667 8.5067 18.667 8.69338 18.667 9.06675V12.2667C18.667 12.6401 18.667 12.8268 18.5943 12.9694C18.5304 13.0949 18.4284 13.1968 18.303 13.2608C18.1604 13.3334 17.9737 13.3334 17.6003 13.3334H14.4003C14.027 13.3334 13.8403 13.3334 13.6977 13.2608C13.5722 13.1968 13.4702 13.0949 13.4063 12.9694C13.3337 12.8268 13.3337 12.6401 13.3337 12.2667V9.06675Z" stroke="#3534FF" stroke-width="1.5" stroke-linecap="round" stroke-linejoin="round"/>
<path d="M4.00033 17.0667C4.00033 16.6934 4.00033 16.5067 4.07299 16.3641C4.1369 16.2386 4.23889 16.1367 4.36433 16.0727C4.50694 16.0001 4.69362 16.0001 5.06699 16.0001H8.26699C8.64036 16.0001 8.82705 16.0001 8.96965 16.0727C9.09509 16.1367 9.19708 16.2386 9.261 16.3641C9.33366 16.5067 9.33366 16.6934 9.33366 17.0667V20.2667C9.33366 20.6401 9.33366 20.8268 9.261 20.9694C9.19708 21.0949 9.09509 21.1968 8.96965 21.2608C8.82705 21.3334 8.64036 21.3334 8.26699 21.3334H5.06699C4.69362 21.3334 4.50694 21.3334 4.36433 21.2608C4.23889 21.1968 4.1369 21.0949 4.07299 20.9694C4.00033 20.8268 4.00033 20.6401 4.00033 20.2667V17.0667Z" stroke="#3534FF" stroke-width="1.5" stroke-linecap="round" stroke-linejoin="round"/>
<path d="M2.66699 3.73341C2.66699 3.36005 2.66699 3.17336 2.73965 3.03075C2.80357 2.90531 2.90556 2.80333 3.031 2.73941C3.17361 2.66675 3.36029 2.66675 3.73366 2.66675H6.93366C7.30703 2.66675 7.49371 2.66675 7.63632 2.73941C7.76176 2.80333 7.86375 2.90531 7.92766 3.03075C8.00033 3.17336 8.00033 3.36005 8.00033 3.73341V6.93341C8.00033 7.30678 8.00033 7.49347 7.92766 7.63608C7.86375 7.76152 7.76176 7.8635 7.63632 7.92742C7.49371 8.00008 7.30703 8.00008 6.93366 8.00008H3.73366C3.36029 8.00008 3.17361 8.00008 3.031 7.92742C2.90556 7.8635 2.80357 7.76152 2.73965 7.63608C2.66699 7.49347 2.66699 7.30678 2.66699 6.93341V3.73341Z" stroke="#3534FF" stroke-width="1.5" stroke-linecap="round" stroke-linejoin="round"/>
</svg>
