<svg width="32" height="32" viewBox="0 0 32 32" fill="none" xmlns="http://www.w3.org/2000/svg">
<path d="M8.00033 8.00008L14.0003 14.0001M8.00033 8.00008H4.00033L2.66699 4.00008L4.00033 2.66675L8.00033 4.00008V8.00008ZM25.679 3.65476L22.1755 7.15825C21.6475 7.68628 21.3835 7.95029 21.2845 8.25473C21.1975 8.52252 21.1975 8.81098 21.2845 9.07877C21.3835 9.38321 21.6475 9.64722 22.1755 10.1752L22.4918 10.4916C23.0199 11.0196 23.2839 11.2836 23.5883 11.3825C23.8561 11.4695 24.1446 11.4695 24.4123 11.3825C24.7168 11.2836 24.9808 11.0196 25.5088 10.4916L28.786 7.21437C29.139 8.07326 29.3337 9.01394 29.3337 10.0001C29.3337 14.0502 26.0504 17.3334 22.0003 17.3334C21.512 17.3334 21.0349 17.2857 20.5733 17.1947C19.9251 17.0668 19.601 17.0029 19.4046 17.0225C19.1957 17.0433 19.0928 17.0746 18.9077 17.1737C18.7336 17.2668 18.559 17.4415 18.2097 17.7907L8.66699 27.3334C7.56242 28.438 5.77156 28.438 4.66699 27.3334C3.56242 26.2288 3.56242 24.438 4.66699 23.3334L14.2097 13.7907C14.559 13.4414 14.7336 13.2668 14.8267 13.0927C14.9258 12.9077 14.9571 12.8047 14.9779 12.5958C14.9975 12.3994 14.9336 12.0753 14.8057 11.4271C14.7147 10.9655 14.667 10.4884 14.667 10.0001C14.667 5.94999 17.9502 2.66675 22.0003 2.66675C23.341 2.66675 24.5976 3.02651 25.679 3.65476ZM16.0004 20L23.3337 27.3333C24.4382 28.4378 26.2291 28.4378 27.3336 27.3333C28.4382 26.2287 28.4382 24.4378 27.3336 23.3333L21.3007 17.3005C20.8737 17.2601 20.4573 17.183 20.0547 17.0725C19.536 16.9301 18.9669 17.0335 18.5865 17.4139L16.0004 20Z" stroke="#3534FF" stroke-width="1.5" stroke-linecap="round" stroke-linejoin="round"/>
</svg>
