<svg width="32" height="32" viewBox="0 0 32 32" fill="none" xmlns="http://www.w3.org/2000/svg">
<path d="M11.9997 15.3333L14.6663 18L20.6663 12M26.6663 16C26.6663 22.5446 19.5277 27.3045 16.9303 28.8198C16.6351 28.992 16.4875 29.0781 16.2792 29.1228C16.1176 29.1575 15.8818 29.1575 15.7201 29.1228C15.5118 29.0781 15.3642 28.992 15.069 28.8198C12.4716 27.3045 5.33301 22.5446 5.33301 16V9.62346C5.33301 8.55744 5.33301 8.02444 5.50735 7.56626C5.66137 7.16151 5.91165 6.80036 6.23655 6.51403C6.60433 6.18991 7.10341 6.00276 8.10155 5.62845L15.2506 2.94756C15.5278 2.84361 15.6664 2.79163 15.809 2.77103C15.9355 2.75276 16.0639 2.75276 16.1904 2.77103C16.3329 2.79163 16.4715 2.84361 16.7487 2.94756L23.8978 5.62845C24.8959 6.00276 25.395 6.18991 25.7628 6.51403C26.0877 6.80036 26.338 7.16151 26.492 7.56626C26.6663 8.02444 26.6663 8.55744 26.6663 9.62346V16Z" stroke="#3534FF" stroke-width="1.5" stroke-linecap="round" stroke-linejoin="round"/>
</svg>
