<svg width="48" height="48" viewBox="0 0 48 48" fill="none" xmlns="http://www.w3.org/2000/svg">
<path d="M20 14L6 14M42 14L28 14M28 14.5039C34.9009 16.2801 40 22.5445 40 29.9998M8 29.9998C8 22.5445 13.0991 16.2801 20 14.5039M7.2 38H8.8C9.92011 38 10.4802 38 10.908 37.782C11.2843 37.5903 11.5903 37.2843 11.782 36.908C12 36.4802 12 35.9201 12 34.8V33.2C12 32.0799 12 31.5198 11.782 31.092C11.5903 30.7157 11.2843 30.4097 10.908 30.218C10.4802 30 9.92011 30 8.8 30H7.2C6.0799 30 5.51984 30 5.09202 30.218C4.71569 30.4097 4.40973 30.7157 4.21799 31.092C4 31.5198 4 32.0799 4 33.2V34.8C4 35.9201 4 36.4802 4.21799 36.908C4.40973 37.2843 4.71569 37.5903 5.09202 37.782C5.51984 38 6.07989 38 7.2 38ZM23.2 18H24.8C25.9201 18 26.4802 18 26.908 17.782C27.2843 17.5903 27.5903 17.2843 27.782 16.908C28 16.4802 28 15.9201 28 14.8V13.2C28 12.0799 28 11.5198 27.782 11.092C27.5903 10.7157 27.2843 10.4097 26.908 10.218C26.4802 10 25.9201 10 24.8 10H23.2C22.0799 10 21.5198 10 21.092 10.218C20.7157 10.4097 20.4097 10.7157 20.218 11.092C20 11.5198 20 12.0799 20 13.2V14.8C20 15.9201 20 16.4802 20.218 16.908C20.4097 17.2843 20.7157 17.5903 21.092 17.782C21.5198 18 22.0799 18 23.2 18ZM39.2 38H40.8C41.9201 38 42.4802 38 42.908 37.782C43.2843 37.5903 43.5903 37.2843 43.782 36.908C44 36.4802 44 35.9201 44 34.8V33.2C44 32.0799 44 31.5198 43.782 31.092C43.5903 30.7157 43.2843 30.4097 42.908 30.218C42.4802 30 41.9201 30 40.8 30H39.2C38.0799 30 37.5198 30 37.092 30.218C36.7157 30.4097 36.4097 30.7157 36.218 31.092C36 31.5198 36 32.0799 36 33.2V34.8C36 35.9201 36 36.4802 36.218 36.908C36.4097 37.2843 36.7157 37.5903 37.092 37.782C37.5198 38 38.0799 38 39.2 38ZM44 14C44 15.1046 43.1046 16 42 16C40.8954 16 40 15.1046 40 14C40 12.8954 40.8954 12 42 12C43.1046 12 44 12.8954 44 14ZM8 14C8 15.1046 7.10457 16 6 16C4.89543 16 4 15.1046 4 14C4 12.8954 4.89543 12 6 12C7.10457 12 8 12.8954 8 14Z" stroke="white" stroke-width="2" stroke-linecap="round" stroke-linejoin="round"/>
</svg>
