<svg width="48" height="48" viewBox="0 0 48 48" fill="none" xmlns="http://www.w3.org/2000/svg">
<path d="M42.4 44C42.9601 44 43.2401 44 43.454 43.891C43.6422 43.7951 43.7951 43.6422 43.891 43.454C44 43.2401 44 42.9601 44 42.4V21.6C44 21.0399 44 20.7599 43.891 20.546C43.7951 20.3579 43.6422 20.2049 43.454 20.109C43.2401 20 42.9601 20 42.4 20L37.6 20C37.0399 20 36.7599 20 36.546 20.109C36.3578 20.2049 36.2049 20.3578 36.109 20.546C36 20.7599 36 21.0399 36 21.6V26.4C36 26.9601 36 27.2401 35.891 27.454C35.7951 27.6422 35.6422 27.7951 35.454 27.891C35.2401 28 34.9601 28 34.4 28H29.6C29.0399 28 28.7599 28 28.546 28.109C28.3578 28.2049 28.2049 28.3578 28.109 28.546C28 28.7599 28 29.0399 28 29.6V34.4C28 34.9601 28 35.2401 27.891 35.454C27.7951 35.6422 27.6422 35.7951 27.454 35.891C27.2401 36 26.9601 36 26.4 36H21.6C21.0399 36 20.7599 36 20.546 36.109C20.3578 36.2049 20.2049 36.3578 20.109 36.546C20 36.7599 20 37.0399 20 37.6V42.4C20 42.9601 20 43.2401 20.109 43.454C20.2049 43.6421 20.3578 43.7951 20.546 43.891C20.7599 44 21.0399 44 21.6 44L42.4 44Z" stroke="white" stroke-width="2" stroke-linecap="round" stroke-linejoin="round"/>
<path d="M20 13.6C20 13.0399 20 12.7599 20.109 12.546C20.2049 12.3578 20.3578 12.2049 20.546 12.109C20.7599 12 21.0399 12 21.6 12H26.4C26.9601 12 27.2401 12 27.454 12.109C27.6422 12.2049 27.7951 12.3578 27.891 12.546C28 12.7599 28 13.0399 28 13.6V18.4C28 18.9601 28 19.2401 27.891 19.454C27.7951 19.6422 27.6422 19.7951 27.454 19.891C27.2401 20 26.9601 20 26.4 20H21.6C21.0399 20 20.7599 20 20.546 19.891C20.3578 19.7951 20.2049 19.6422 20.109 19.454C20 19.2401 20 18.9601 20 18.4V13.6Z" stroke="white" stroke-width="2" stroke-linecap="round" stroke-linejoin="round"/>
<path d="M6 25.6C6 25.0399 6 24.7599 6.10899 24.546C6.20487 24.3578 6.35785 24.2049 6.54601 24.109C6.75992 24 7.03995 24 7.6 24H12.4C12.9601 24 13.2401 24 13.454 24.109C13.6422 24.2049 13.7951 24.3578 13.891 24.546C14 24.7599 14 25.0399 14 25.6V30.4C14 30.9601 14 31.2401 13.891 31.454C13.7951 31.6422 13.6422 31.7951 13.454 31.891C13.2401 32 12.9601 32 12.4 32H7.6C7.03995 32 6.75992 32 6.54601 31.891C6.35785 31.7951 6.20487 31.6422 6.10899 31.454C6 31.2401 6 30.9601 6 30.4V25.6Z" stroke="white" stroke-width="2" stroke-linecap="round" stroke-linejoin="round"/>
<path d="M4 5.6C4 5.03995 4 4.75992 4.10899 4.54601C4.20487 4.35785 4.35785 4.20487 4.54601 4.10899C4.75992 4 5.03995 4 5.6 4H10.4C10.9601 4 11.2401 4 11.454 4.10899C11.6422 4.20487 11.7951 4.35785 11.891 4.54601C12 4.75992 12 5.03995 12 5.6V10.4C12 10.9601 12 11.2401 11.891 11.454C11.7951 11.6422 11.6422 11.7951 11.454 11.891C11.2401 12 10.9601 12 10.4 12H5.6C5.03995 12 4.75992 12 4.54601 11.891C4.35785 11.7951 4.20487 11.6422 4.10899 11.454C4 11.2401 4 10.9601 4 10.4V5.6Z" stroke="white" stroke-width="2" stroke-linecap="round" stroke-linejoin="round"/>
</svg>
