<svg width="32" height="32" viewBox="0 0 32 32" fill="none" xmlns="http://www.w3.org/2000/svg">
<path d="M2.66699 19.3333L15.5233 25.7615C15.6982 25.8489 15.7857 25.8927 15.8774 25.9099C15.9586 25.9251 16.042 25.9251 16.1233 25.9099C16.215 25.8927 16.3024 25.8489 16.4774 25.7615L29.3337 19.3333M2.66699 12.6667L15.5233 6.23851C15.6982 6.15106 15.7857 6.10733 15.8774 6.09012C15.9586 6.07488 16.042 6.07488 16.1233 6.09012C16.215 6.10733 16.3024 6.15106 16.4774 6.23851L29.3337 12.6667L16.4774 19.0948C16.3024 19.1823 16.215 19.226 16.1233 19.2432C16.042 19.2585 15.9586 19.2585 15.8774 19.2432C15.7857 19.226 15.6982 19.1823 15.5233 19.0948L2.66699 12.6667Z" stroke="#3534FF" stroke-width="1.5" stroke-linecap="round" stroke-linejoin="round"/>
</svg>
