<svg width="32" height="32" viewBox="0 0 32 32" fill="none" xmlns="http://www.w3.org/2000/svg">
<path d="M21.3337 10.6667V17.3333C21.3337 18.3942 21.7551 19.4116 22.5052 20.1617C23.2554 20.9119 24.2728 21.3333 25.3337 21.3333C26.3945 21.3333 27.412 20.9119 28.1621 20.1617C28.9122 19.4116 29.3337 18.3942 29.3337 17.3333V16C29.3335 12.9907 28.3153 10.07 26.4447 7.71269C24.5741 5.35543 21.9611 3.70029 19.0305 3.01638C16.1 2.33248 13.0243 2.66004 10.3035 3.94581C7.58269 5.23158 5.37687 7.39993 4.04468 10.0983C2.7125 12.7966 2.33229 15.8663 2.9659 18.8081C3.5995 21.75 5.20964 24.391 7.53451 26.3017C9.85938 28.2124 12.7622 29.2805 15.7711 29.3322C18.7799 29.3839 21.7178 28.4163 24.107 26.5867M21.3337 16C21.3337 18.9455 18.9459 21.3333 16.0003 21.3333C13.0548 21.3333 10.667 18.9455 10.667 16C10.667 13.0545 13.0548 10.6667 16.0003 10.6667C18.9459 10.6667 21.3337 13.0545 21.3337 16Z" stroke="#3534FF" stroke-width="1.5" stroke-linecap="round" stroke-linejoin="round"/>
</svg>
