<svg width="32" height="32" viewBox="0 0 32 32" fill="none" xmlns="http://www.w3.org/2000/svg">
<path d="M17.2177 22.6667H26.7829M17.2177 22.6667L14.667 28M17.2177 22.6667L21.0381 14.6787C21.3459 14.035 21.4998 13.7132 21.7104 13.6115C21.8936 13.523 22.1071 13.523 22.2902 13.6115C22.5008 13.7132 22.6548 14.035 22.9626 14.6787L26.7829 22.6667M26.7829 22.6667L29.3337 28M2.66699 6.66667H10.667M10.667 6.66667H15.3337M10.667 6.66667V4M15.3337 6.66667H18.667M15.3337 6.66667C14.6721 10.6097 13.1371 14.1816 10.8877 17.1792M13.3337 18.6667C12.517 18.2997 11.6839 17.7894 10.8877 17.1792M10.8877 17.1792C9.08435 15.797 7.47068 13.9022 6.66699 12M10.8877 17.1792C8.74814 20.0306 5.96224 22.3624 2.66699 24" stroke="#3534FF" stroke-width="1.5" stroke-linecap="round" stroke-linejoin="round"/>
</svg>
