<svg width="32" height="32" viewBox="0 0 32 32" fill="none" xmlns="http://www.w3.org/2000/svg">
<path d="M20.8415 10.1752C20.3135 9.64722 20.0494 9.38321 19.9505 9.07877C19.8635 8.81098 19.8635 8.52252 19.9505 8.25473C20.0494 7.95029 20.3135 7.68628 20.8415 7.15825L24.626 3.37376C23.6217 2.91958 22.5069 2.66675 21.333 2.66675C16.9147 2.66675 13.333 6.24847 13.333 10.6667C13.333 11.3215 13.4116 11.9578 13.56 12.5669C13.7189 13.2191 13.7983 13.5452 13.7842 13.7512C13.7695 13.9669 13.7373 14.0816 13.6378 14.2736C13.5428 14.4569 13.3608 14.6389 12.9967 15.003L4.66632 23.3334C3.56175 24.438 3.56175 26.2288 4.66632 27.3334C5.77089 28.438 7.56175 28.438 8.66632 27.3334L16.9967 19.003C17.3608 18.6389 17.5428 18.4569 17.7262 18.3619C17.9181 18.2624 18.0329 18.2303 18.2485 18.2155C18.4546 18.2014 18.7807 18.2809 19.4329 18.4397C20.0419 18.5881 20.6783 18.6667 21.333 18.6667C25.7513 18.6667 29.333 15.085 29.333 10.6667C29.333 9.49287 29.0802 8.37805 28.626 7.37376L24.8415 11.1583C24.3135 11.6863 24.0494 11.9503 23.745 12.0492C23.4772 12.1362 23.1888 12.1362 22.921 12.0492C22.6165 11.9503 22.3525 11.6863 21.8245 11.1583L20.8415 10.1752Z" stroke="#3534FF" stroke-width="1.5" stroke-linecap="round" stroke-linejoin="round"/>
</svg>
