<svg width="32" height="32" viewBox="0 0 32 32" fill="none" xmlns="http://www.w3.org/2000/svg">
<path d="M17.3337 14.6667H23.7337C25.2271 14.6667 25.9739 14.6667 26.5443 14.9573C27.0461 15.213 27.454 15.6209 27.7097 16.1227C28.0003 16.6931 28.0003 17.4399 28.0003 18.9333V28M17.3337 28V8.26667C17.3337 6.77319 17.3337 6.02646 17.043 5.45603C16.7873 4.95426 16.3794 4.54631 15.8776 4.29065C15.3072 4 14.5605 4 13.067 4H8.26699C6.77352 4 6.02678 4 5.45635 4.29065C4.95459 4.54631 4.54664 4.95426 4.29097 5.45603C4.00033 6.02646 4.00033 6.77319 4.00033 8.26667V28M29.3337 28H2.66699M8.66699 9.33333H12.667M8.66699 14.6667H12.667M8.66699 20H12.667" stroke="#3534FF" stroke-width="1.5" stroke-linecap="round" stroke-linejoin="round"/>
</svg>
