<svg width="89" height="28" viewBox="0 0 89 28" fill="none" xmlns="http://www.w3.org/2000/svg">
<g clip-path="url(#clip0_1611_27157)">
<mask id="mask0_1611_27157" style="mask-type:luminance" maskUnits="userSpaceOnUse" x="0" y="0" width="89" height="28">
<path d="M89 0.5H0V27.5H89V0.5Z" fill="white"/>
</mask>
<g mask="url(#mask0_1611_27157)">
<path d="M46.8954 7.28462C46.8954 8.25846 46.0885 9.04308 45.0869 9.04308C44.0853 9.04308 43.2783 8.25846 43.2783 7.28462C43.2783 6.31077 44.0568 5.52615 45.0869 5.52615C46.117 5.55385 46.8954 6.33846 46.8954 7.28462ZM39.4475 10.8246V11.2585C39.4475 11.2585 38.5883 10.1785 36.7513 10.1785C33.7227 10.1785 31.3588 12.4215 31.3588 15.5277C31.3588 18.6108 33.6943 20.8769 36.7513 20.8769C38.6121 20.8769 39.4475 19.7692 39.4475 19.7692V20.2308C39.4475 20.4477 39.6137 20.6092 39.8368 20.6092H42.0868V10.4462H39.8368C39.6137 10.4462 39.4475 10.6354 39.4475 10.8246ZM39.4475 17.3369C39.0298 17.9323 38.1991 18.4446 37.1975 18.4446C35.4174 18.4446 34.055 17.3646 34.055 15.5231C34.055 13.6862 35.4174 12.6062 37.1975 12.6062C38.1706 12.6062 39.0583 13.1462 39.4475 13.7138V17.3369ZM43.753 10.4462H46.4208V20.6092H43.753V10.4462ZM83.6129 10.1738C81.7806 10.1738 80.9166 11.2538 80.9166 11.2538V5.55385H78.2489V20.6092H80.4989C80.722 20.6092 80.8881 20.42 80.8881 20.2308V19.7738C80.8881 19.7738 81.7521 20.8815 83.5844 20.8815C86.6129 20.8815 88.9769 18.6108 88.9769 15.5323C88.9769 12.4446 86.6177 10.1738 83.6129 10.1738ZM83.1714 18.4169C82.1413 18.4169 81.3391 17.9046 80.9214 17.3092V13.6862C81.3391 13.1462 82.2268 12.5785 83.1714 12.5785C84.9515 12.5785 86.3139 13.6585 86.3139 15.4954C86.3091 17.3369 84.9515 18.4169 83.1714 18.4169ZM76.858 14.5815V20.6369H74.1902V14.8769C74.1902 13.2015 73.6348 12.5277 72.1348 12.5277C71.3278 12.5277 70.4971 12.9338 69.9655 13.5292V20.6092H67.2977V10.4462H69.4101C69.6332 10.4462 69.7993 10.6354 69.7993 10.8246V11.2585C70.5778 10.4738 71.6079 10.1785 72.6332 10.1785C73.801 10.1785 74.7741 10.5015 75.5526 11.1523C76.4972 11.9046 76.858 12.8785 76.858 14.5815ZM60.8229 10.1738C58.9906 10.1738 58.1267 11.2538 58.1267 11.2538V5.55385H55.4589V20.6092H57.7089C57.932 20.6092 58.0982 20.42 58.0982 20.2308V19.7738C58.0982 19.7738 58.9621 20.8815 60.7944 20.8815C63.823 20.8815 66.1869 18.6108 66.1869 15.5323C66.2154 12.4446 63.8514 10.1738 60.8229 10.1738ZM60.3767 18.4169C59.3466 18.4169 58.5444 17.9046 58.1267 17.3092V13.6862C58.5444 13.1462 59.4321 12.5785 60.3767 12.5785C62.1568 12.5785 63.5192 13.6585 63.5192 15.4954C63.5192 17.3369 62.1568 18.4169 60.3767 18.4169ZM53.1471 10.1738C53.9541 10.1738 54.3718 10.3077 54.3718 10.3077V12.7123C54.3718 12.7123 52.1503 11.9831 50.7594 13.5246V20.6323H48.0917V10.4462H50.3417C50.5648 10.4462 50.731 10.6354 50.731 10.8246V11.2585C51.2294 10.6908 52.3164 10.1738 53.1471 10.1738ZM25.4346 19.6908C25.297 19.3677 25.1546 19.0169 25.0169 18.7169C24.7938 18.2323 24.5707 17.7708 24.3761 17.3369L24.3476 17.3092C22.4298 13.2569 20.3744 9.14923 18.2051 5.09231L18.1196 4.93077C17.8918 4.51077 17.6687 4.08615 17.455 3.66154C17.175 3.17692 16.8997 2.66 16.4534 2.17538C15.5705 1.09538 14.2889 0.5 12.9265 0.5C11.5356 0.5 10.2872 1.09538 9.37105 2.12C8.95332 2.60462 8.64951 3.12154 8.36945 3.60615C8.15109 4.03077 7.93273 4.45538 7.70488 4.87538L7.61943 5.03692C5.47857 9.08923 3.39467 13.1969 1.47692 17.2538L1.44844 17.3092C1.25381 17.7431 1.03071 18.2 0.807602 18.6892C0.669941 18.9846 0.53228 19.3123 0.389873 19.6631C0.0291069 20.6646 -0.0848191 21.6108 0.0575884 22.5846C0.361391 24.6108 1.75224 26.3138 3.66999 27.0708C4.39153 27.3662 5.14154 27.5046 5.92003 27.5046C6.14314 27.5046 6.41846 27.4769 6.64157 27.4492C7.55772 27.3431 8.50236 27.0431 9.42326 26.5308C10.5625 25.9077 11.6448 25.0169 12.8695 23.72C14.0942 25.0169 15.205 25.9077 16.3158 26.5308C17.2319 27.0431 18.1766 27.3431 19.0975 27.4492C19.3206 27.4769 19.6007 27.5046 19.819 27.5046C20.5975 27.5046 21.376 27.3708 22.0691 27.0708C24.0153 26.3138 25.3777 24.5831 25.6815 22.5846C25.9093 21.6338 25.7954 20.6877 25.4346 19.6908ZM12.898 21.0938C11.398 19.2569 10.4249 17.5262 10.0926 16.0677C9.95492 15.4446 9.92644 14.9046 10.0071 14.42C10.0641 13.9862 10.2302 13.6077 10.4533 13.2846C10.9803 12.5554 11.8727 12.0938 12.898 12.0938C13.9281 12.0938 14.8442 12.5277 15.3427 13.2846C15.5658 13.6077 15.7319 13.9862 15.7889 14.42C15.8743 14.9046 15.8458 15.4723 15.7034 16.0677C15.3759 17.4985 14.4028 19.2292 12.898 21.0938ZM23.9916 22.3631C23.7969 23.7662 22.8238 24.9846 21.4615 25.5246C20.7921 25.7923 20.0706 25.8754 19.3491 25.7923C18.656 25.7092 17.9582 25.4969 17.2367 25.0908C16.2351 24.5508 15.2335 23.7108 14.0657 22.4692C15.8981 20.2815 17.0136 18.2785 17.4313 16.4969C17.6259 15.6569 17.6544 14.9 17.569 14.1985C17.4598 13.5246 17.2082 12.9015 16.819 12.3615C15.955 11.1431 14.512 10.4415 12.898 10.4415C11.2841 10.4415 9.84099 11.1708 8.97705 12.3615C8.5878 12.9015 8.33622 13.5246 8.22704 14.1985C8.11786 14.9 8.14159 15.6846 8.3647 16.4969C8.78243 18.2785 9.92169 20.3092 11.7255 22.4969C10.5863 23.7385 9.55618 24.5785 8.55457 25.1185C7.83304 25.5246 7.13525 25.7415 6.4422 25.82C5.69218 25.9031 4.97065 25.7923 4.32982 25.5523C2.96745 25.0123 1.99433 23.7938 1.79971 22.3908C1.71426 21.7169 1.77123 21.0385 2.05129 20.2815C2.13199 20.0092 2.2744 19.7415 2.41206 19.4185C2.60668 18.9846 2.82979 18.5277 3.0529 18.0662L3.08138 18.0108C4.99913 13.9815 7.05455 9.87385 9.19541 5.87692L9.28085 5.71538C9.50396 5.30923 9.72706 4.88 9.95017 4.47385C10.1733 4.04 10.4249 3.63385 10.7287 3.28308C11.3125 2.63692 12.091 2.28154 12.9502 2.28154C13.8142 2.28154 14.5879 2.63231 15.1718 3.28308C15.4756 3.63385 15.7272 4.04 15.9503 4.47385C16.1734 4.88 16.3965 5.31385 16.6196 5.71538L16.705 5.87692C18.8127 9.89231 20.8444 13.9492 22.7906 18.0385V18.0662C23.0137 18.5 23.2083 18.9846 23.4314 19.4185C23.5691 19.7415 23.7115 20.0138 23.7922 20.2815C24.02 20.9877 24.1007 21.6615 23.9916 22.3631Z" fill="#050D20"/>
</g>
</g>
<defs>
<clipPath id="clip0_1611_27157">
<rect width="89" height="27" fill="white" transform="translate(0 0.5)"/>
</clipPath>
</defs>
</svg>
