<svg width="82" height="26" viewBox="0 0 82 26" fill="none" xmlns="http://www.w3.org/2000/svg">
<g clip-path="url(#clip0_1611_27143)">
<path fill-rule="evenodd" clip-rule="evenodd" d="M50.8716 20.0536C46.1064 23.607 39.1996 25.5029 33.253 25.5029C24.9148 25.5029 17.4084 22.3828 11.7294 17.1936C11.2833 16.7855 11.683 16.2294 12.2185 16.5472C18.3471 20.1547 25.925 22.325 33.7527 22.325C39.0318 22.325 44.8393 21.22 50.1791 18.9269C50.9858 18.5803 51.6604 19.4614 50.8716 20.0536Z" fill="#050D20"/>
<path fill-rule="evenodd" clip-rule="evenodd" d="M52.8516 17.7565C52.2448 16.9693 48.8253 17.3846 47.2905 17.5688C46.8229 17.6265 46.7515 17.2149 47.1727 16.9188C49.8961 14.9796 54.365 15.5393 54.8862 16.1893C55.4073 16.8429 54.7505 21.3749 52.1913 23.538C51.7986 23.8702 51.4239 23.6933 51.5988 23.2527C52.1734 21.801 53.462 18.5474 52.8516 17.7565Z" fill="#050D20"/>
<path fill-rule="evenodd" clip-rule="evenodd" d="M47.3986 3.22888V1.34386C47.3986 1.05858 47.6127 0.867188 47.8697 0.867188H56.2114C56.4791 0.867188 56.6933 1.06219 56.6933 1.34386V2.95805C56.6897 3.22888 56.4649 3.58277 56.0651 4.1425L51.7425 10.3862C53.3488 10.3465 55.0442 10.5884 56.5006 11.419C56.8289 11.6068 56.9182 11.8812 56.9432 12.152V14.1635C56.9432 14.4379 56.6433 14.7593 56.3292 14.5932C53.7628 13.2318 50.354 13.0837 47.5163 14.6076C47.2272 14.7665 46.9238 14.4487 46.9238 14.1743V12.264C46.9238 11.957 46.9274 11.4334 47.2308 10.9676L52.2387 3.70195H47.8804C47.6127 3.70195 47.3986 3.51055 47.3986 3.22888Z" fill="#050D20"/>
<path fill-rule="evenodd" clip-rule="evenodd" d="M16.9677 14.9902H14.4299C14.1872 14.9721 13.9944 14.7879 13.9766 14.5532V1.37612C13.9766 1.11251 14.1943 0.903064 14.4656 0.903064H16.8321C17.0784 0.913891 17.2747 1.10528 17.2925 1.34362V3.06614H17.3389C17.9565 1.4014 19.1165 0.625 20.6799 0.625C22.2683 0.625 23.2606 1.4014 23.9745 3.06614C24.5884 1.4014 25.984 0.625 27.4796 0.625C28.5433 0.625 29.7069 1.06917 30.4173 2.06585C31.2204 3.17447 31.0562 4.78505 31.0562 6.19701L31.0526 14.5135C31.0526 14.7771 30.8349 14.9902 30.5636 14.9902H28.0293C27.7759 14.9721 27.5724 14.7663 27.5724 14.5135V7.52953C27.5724 6.97341 27.6224 5.58672 27.501 5.05949C27.3119 4.17476 26.7443 3.9256 26.009 3.9256C25.3951 3.9256 24.7526 4.34088 24.492 5.00533C24.2315 5.66979 24.2565 6.78202 24.2565 7.52953V14.5135C24.2565 14.7771 24.0387 14.9902 23.7674 14.9902H21.2332C20.9762 14.9721 20.7763 14.7663 20.7763 14.5135L20.7727 7.52953C20.7727 6.05979 21.0119 3.89671 19.2093 3.89671C17.3853 3.89671 17.4567 6.00562 17.4567 7.52953V14.5135C17.4567 14.7771 17.239 14.9902 16.9677 14.9902Z" fill="#050D20"/>
<path fill-rule="evenodd" clip-rule="evenodd" d="M63.8751 0.625C67.6408 0.625 69.679 3.8967 69.679 8.05675C69.679 12.076 67.4267 15.2646 63.8751 15.2646C60.1772 15.2646 58.1641 11.9929 58.1641 7.91592C58.1641 3.81365 60.2022 0.625 63.8751 0.625ZM63.8965 3.31531C62.0262 3.31531 61.9084 5.89367 61.9084 7.50063C61.9084 9.1112 61.8834 12.549 63.8751 12.549C65.8419 12.549 65.9347 9.77566 65.9347 8.08564C65.9347 6.97341 65.8883 5.64451 65.5563 4.59005C65.2708 3.67282 64.7032 3.31531 63.8965 3.31531Z" fill="#050D20"/>
<path fill-rule="evenodd" clip-rule="evenodd" d="M74.5618 14.9902H72.0347C71.7812 14.9721 71.5778 14.7663 71.5778 14.5135L71.5742 1.33278C71.5956 1.09084 71.8062 0.903064 72.0632 0.903064H74.4155C74.6368 0.913891 74.8188 1.06556 74.8688 1.2714V3.28642H74.9152C75.6255 1.48446 76.6214 0.625 78.3739 0.625C79.5126 0.625 80.6227 1.04028 81.3365 2.1778C82.0005 3.23225 82.0005 5.00533 82.0005 6.28007V14.5749C81.9719 14.806 81.7613 14.9902 81.5115 14.9902H78.9665C78.7344 14.9721 78.5417 14.7988 78.5167 14.5749V7.41758C78.5167 5.97673 78.6809 3.86781 76.9283 3.86781C76.3108 3.86781 75.7433 4.28671 75.4613 4.92227C75.1044 5.72756 75.058 6.52924 75.058 7.41758V14.5135C75.0544 14.7771 74.8331 14.9902 74.5618 14.9902Z" fill="#050D20"/>
<path fill-rule="evenodd" clip-rule="evenodd" d="M40.7494 8.69732C40.7494 9.69761 40.7744 10.5318 40.2747 11.4201C39.8713 12.1424 39.2288 12.5865 38.5185 12.5865C37.5441 12.5865 36.973 11.8354 36.973 10.7268C36.973 8.53843 38.9111 8.1412 40.7494 8.1412V8.69732ZM43.3087 14.9554C43.1409 15.1071 42.8982 15.1179 42.709 15.0168C41.8666 14.309 41.7131 13.9804 41.2527 13.3051C39.8606 14.7424 38.8719 15.1721 37.0693 15.1721C34.9313 15.1721 33.2715 13.8396 33.2715 11.171C33.2715 9.08732 34.3851 7.66814 35.9771 6.9748C37.3549 6.3609 39.2788 6.25256 40.7494 6.08284V5.75062C40.7494 5.14033 40.7958 4.4181 40.4389 3.89088C40.1319 3.41782 39.5394 3.22281 39.0147 3.22281C38.0474 3.22281 37.1871 3.72476 36.9765 4.76477C36.9337 4.99589 36.7659 5.22339 36.5339 5.23422L34.0746 4.96699C33.8676 4.92005 33.6356 4.75033 33.6962 4.42894C34.2602 1.41002 36.9587 0.5 39.3716 0.5C40.6066 0.5 42.22 0.832226 43.1944 1.77835C44.4295 2.94475 44.3117 4.50116 44.3117 6.19479V10.1959C44.3117 11.3985 44.8042 11.9257 45.2683 12.5757C45.4289 12.8068 45.4646 13.0849 45.2575 13.2582C44.74 13.6952 43.8191 14.5077 43.3122 14.9627L43.3087 14.9554Z" fill="#050D20"/>
<path fill-rule="evenodd" clip-rule="evenodd" d="M7.47791 8.69732C7.47791 9.69761 7.50289 10.5318 7.00318 11.4201C6.59983 12.1424 5.96091 12.5865 5.24703 12.5865C4.27258 12.5865 3.70504 11.8354 3.70504 10.7268C3.70504 8.53843 5.64323 8.1412 7.47791 8.1412V8.69732ZM10.0372 14.9554C9.86941 15.1071 9.62669 15.1179 9.43751 15.0168C8.59513 14.309 8.44522 13.9804 7.98119 13.3051C6.58912 14.7424 5.60397 15.1721 3.79785 15.1721C1.66334 15.1721 0 13.8396 0 11.171C0 9.08732 1.11722 7.66814 2.70561 6.9748C4.0834 6.3609 6.00731 6.25256 7.47791 6.08284V5.75062C7.47791 5.14033 7.52431 4.4181 7.17094 3.89088C6.8604 3.41782 6.26788 3.22281 5.74674 3.22281C4.77944 3.22281 3.91564 3.72476 3.70504 4.76477C3.66221 4.99589 3.49445 5.22339 3.26601 5.23422L0.803117 4.96699C0.59609 4.92005 0.367648 4.75033 0.424758 4.42894C0.992295 1.41002 3.6872 0.5 6.10012 0.5C7.33513 0.5 8.9485 0.832226 9.92295 1.77835C11.158 2.94475 11.0402 4.50116 11.0402 6.19479V10.1959C11.0402 11.3985 11.5328 11.9257 11.9968 12.5757C12.161 12.8068 12.1967 13.0849 11.9896 13.2582C11.4721 13.6952 10.5512 14.5077 10.0443 14.9627L10.0372 14.9554Z" fill="#050D20"/>
</g>
<defs>
<clipPath id="clip0_1611_27143">
<rect width="82" height="25" fill="white" transform="translate(0 0.5)"/>
</clipPath>
</defs>
</svg>
