<svg width="179" height="48" viewBox="0 0 179 48" fill="none" xmlns="http://www.w3.org/2000/svg">
<path fill-rule="evenodd" clip-rule="evenodd" d="M20.5 38C28.232 38 34.5 31.732 34.5 24C34.5 16.268 28.232 10 20.5 10C12.768 10 6.5 16.268 6.5 24C6.5 31.732 12.768 38 20.5 38ZM20.5 44C31.5457 44 40.5 35.0457 40.5 24C40.5 12.9543 31.5457 4 20.5 4C9.4543 4 0.5 12.9543 0.5 24C0.5 35.0457 9.4543 44 20.5 44Z" fill="#999999"/>
<path d="M66.6836 20.413C66.6836 21.4583 66.4316 22.4383 65.9276 23.353C65.4423 24.2676 64.6676 25.005 63.6036 25.565C62.5583 26.125 61.233 26.405 59.6276 26.405H56.3516V33.909H52.4316V14.365H59.6276C61.1396 14.365 62.4276 14.6263 63.4916 15.149C64.5556 15.6716 65.349 16.3903 65.8716 17.305C66.413 18.2196 66.6836 19.2556 66.6836 20.413ZM59.4596 23.241C60.5423 23.241 61.345 22.9983 61.8676 22.513C62.3903 22.009 62.6516 21.309 62.6516 20.413C62.6516 18.509 61.5876 17.557 59.4596 17.557H56.3516V23.241H59.4596Z" fill="#999999"/>
<path d="M75.2348 34.161C73.7415 34.161 72.3975 33.8343 71.2028 33.181C70.0081 32.509 69.0655 31.5663 68.3748 30.353C67.7028 29.1396 67.3668 27.7396 67.3668 26.153C67.3668 24.5663 67.7121 23.1663 68.4028 21.953C69.1121 20.7396 70.0735 19.8063 71.2868 19.153C72.5001 18.481 73.8535 18.145 75.3468 18.145C76.8401 18.145 78.1935 18.481 79.4068 19.153C80.6201 19.8063 81.5721 20.7396 82.2628 21.953C82.9721 23.1663 83.3268 24.5663 83.3268 26.153C83.3268 27.7396 82.9628 29.1396 82.2348 30.353C81.5255 31.5663 80.5548 32.509 79.3228 33.181C78.1095 33.8343 76.7468 34.161 75.2348 34.161ZM75.2348 30.745C75.9441 30.745 76.6068 30.577 77.2228 30.241C77.8575 29.8863 78.3615 29.3636 78.7348 28.673C79.1081 27.9823 79.2948 27.1423 79.2948 26.153C79.2948 24.6783 78.9028 23.549 78.1188 22.765C77.3535 21.9623 76.4108 21.561 75.2908 21.561C74.1708 21.561 73.2281 21.9623 72.4628 22.765C71.7161 23.549 71.3428 24.6783 71.3428 26.153C71.3428 27.6276 71.7068 28.7663 72.4348 29.569C73.1815 30.353 74.1148 30.745 75.2348 30.745Z" fill="#999999"/>
<path d="M89.0023 13.189V33.909H85.0823V13.189H89.0023Z" fill="#999999"/>
<path d="M106.595 18.397L96.9912 41.245H92.8192L96.1792 33.517L89.9632 18.397H94.3592L98.3632 29.233L102.423 18.397H106.595Z" fill="#999999"/>
<path d="M126.852 18.173C128.756 18.173 130.287 18.761 131.444 19.937C132.62 21.0943 133.208 22.7183 133.208 24.809V33.909H129.288V25.341C129.288 24.1276 128.98 23.2036 128.364 22.569C127.748 21.9156 126.908 21.589 125.844 21.589C124.78 21.589 123.931 21.9156 123.296 22.569C122.68 23.2036 122.372 24.1276 122.372 25.341V33.909H118.452V25.341C118.452 24.1276 118.144 23.2036 117.528 22.569C116.912 21.9156 116.072 21.589 115.008 21.589C113.926 21.589 113.067 21.9156 112.432 22.569C111.816 23.2036 111.508 24.1276 111.508 25.341V33.909H107.588V18.397H111.508V20.273C112.012 19.6196 112.656 19.1063 113.44 18.733C114.243 18.3596 115.12 18.173 116.072 18.173C117.286 18.173 118.368 18.4343 119.32 18.957C120.272 19.461 121.01 20.189 121.532 21.141C122.036 20.245 122.764 19.5263 123.716 18.985C124.687 18.4436 125.732 18.173 126.852 18.173Z" fill="#999999"/>
<path d="M134.8 26.097C134.8 24.529 135.108 23.1383 135.724 21.925C136.359 20.7116 137.208 19.7783 138.272 19.125C139.355 18.4716 140.559 18.145 141.884 18.145C143.042 18.145 144.05 18.3783 144.908 18.845C145.786 19.3116 146.486 19.8996 147.008 20.609V18.397H150.956V33.909H147.008V31.641C146.504 32.369 145.804 32.9756 144.908 33.461C144.031 33.9276 143.014 34.161 141.856 34.161C140.55 34.161 139.355 33.825 138.272 33.153C137.208 32.481 136.359 31.5383 135.724 30.325C135.108 29.093 134.8 27.6836 134.8 26.097ZM147.008 26.153C147.008 25.201 146.822 24.389 146.448 23.717C146.075 23.0263 145.571 22.5036 144.936 22.149C144.302 21.7756 143.62 21.589 142.892 21.589C142.164 21.589 141.492 21.7663 140.876 22.121C140.26 22.4756 139.756 22.9983 139.364 23.689C138.991 24.361 138.804 25.1636 138.804 26.097C138.804 27.0303 138.991 27.8516 139.364 28.561C139.756 29.2516 140.26 29.7836 140.876 30.157C141.511 30.5303 142.183 30.717 142.892 30.717C143.62 30.717 144.302 30.5396 144.936 30.185C145.571 29.8116 146.075 29.289 146.448 28.617C146.822 27.9263 147.008 27.105 147.008 26.153Z" fill="#999999"/>
<path d="M158.229 21.617V29.121C158.229 29.6436 158.35 30.0263 158.593 30.269C158.854 30.493 159.283 30.605 159.881 30.605H161.701V33.909H159.237C155.933 33.909 154.281 32.3036 154.281 29.093V21.617H152.433V18.397H154.281V14.561H158.229V18.397H161.701V21.617H158.229Z" fill="#999999"/>
<path d="M172.136 18.173C173.312 18.173 174.358 18.4343 175.272 18.957C176.187 19.461 176.896 20.217 177.4 21.225C177.923 22.2143 178.184 23.409 178.184 24.809V33.909H174.264V25.341C174.264 24.109 173.956 23.1663 173.34 22.513C172.724 21.841 171.884 21.505 170.82 21.505C169.738 21.505 168.879 21.841 168.244 22.513C167.628 23.1663 167.32 24.109 167.32 25.341V33.909H163.4V13.189H167.32V20.329C167.824 19.657 168.496 19.1343 169.336 18.761C170.176 18.369 171.11 18.173 172.136 18.173Z" fill="#999999"/>
</svg>
