<svg width="183" height="48" viewBox="0 0 183 48" fill="none" xmlns="http://www.w3.org/2000/svg">
<g clip-path="url(#clip0_2515_6539)">
<path d="M27.7694 4.12169L23.5486 2.99072L19.9917 16.2654L16.7804 4.28093L12.5595 5.4119L16.0291 18.3602L7.38724 9.71841L4.29738 12.8083L13.7764 22.2874L1.97179 19.1243L0.84082 23.3451L13.7388 26.8011C13.5912 26.1642 13.5131 25.5006 13.5131 24.8187C13.5131 19.992 17.4258 16.0792 22.2525 16.0792C27.0792 16.0792 30.992 19.992 30.992 24.8187C30.992 25.4962 30.9148 26.1557 30.769 26.7889L42.4909 29.9297L43.6218 25.709L30.6725 22.2392L42.4779 19.0759L41.3469 14.8551L28.3981 18.3247L37.04 9.68293L33.9501 6.59307L24.6026 15.9406L27.7694 4.12169Z" fill="#999999"/>
<path d="M30.7567 26.838C30.3948 28.368 29.6308 29.7424 28.5825 30.8435L37.0745 39.3357L40.1644 36.2458L30.7567 26.838Z" fill="#999999"/>
<path d="M28.4968 30.9323C27.4359 32.0159 26.0951 32.8245 24.5916 33.2413L27.6817 44.7735L31.9025 43.6425L28.4968 30.9323Z" fill="#999999"/>
<path d="M24.434 33.2835C23.7364 33.4628 23.0053 33.5581 22.2518 33.5581C21.4446 33.5581 20.6629 33.4486 19.9208 33.2437L16.8279 44.7866L21.0487 45.9175L24.434 33.2835Z" fill="#999999"/>
<path d="M19.7715 33.2012C18.291 32.7638 16.9741 31.9448 15.9348 30.8581L7.42192 39.3711L10.5118 42.4609L19.7715 33.2012Z" fill="#999999"/>
<path d="M15.8647 30.7829C14.8432 29.6893 14.0992 28.3333 13.7451 26.827L1.98486 29.9781L3.11582 34.1989L15.8647 30.7829Z" fill="#999999"/>
</g>
<path d="M69.0201 12.9092V28.1192L59.2701 12.9092H55.3701V33.9092H59.2701V18.8192L69.0201 33.9092H72.9201V12.9092H69.0201Z" fill="#999999"/>
<path d="M74.6775 16.8392H78.6975V12.9092H74.6775V16.8392ZM74.7375 33.9092V18.9092H78.6375V33.9092H74.7375Z" fill="#999999"/>
<path d="M95.4175 26.4092C95.4175 21.2192 91.7275 18.7592 87.8275 18.7292C83.8975 18.6992 80.2675 21.2192 80.2675 26.4092C80.2675 31.5992 83.8975 34.1192 87.8275 34.0892C91.3975 34.0592 93.8575 32.4092 94.9975 29.6792L91.9675 28.4192C91.0375 30.2792 89.5675 30.9392 87.8275 30.9692C86.3275 30.9992 84.6175 30.2792 84.2575 27.6092H95.3275C95.3875 27.2192 95.4175 26.8292 95.4175 26.4092ZM87.8275 21.8192C89.3275 21.8492 90.8575 22.6592 91.3375 24.8192H84.3175C84.8275 22.6292 86.3575 21.7892 87.8275 21.8192Z" fill="#999999"/>
<path d="M104.431 21.6992V18.7292H101.971V14.7092L98.0707 15.9092V18.7292H95.6107V21.6992H98.0707V29.4692C98.0707 32.4092 98.3107 33.9092 102.871 33.9092H103.921V30.4892H102.871C102.151 30.4892 101.971 30.3692 101.971 29.4692V21.6992H104.431Z" fill="#999999"/>
<path d="M110.226 30.6392L118.506 22.1792V18.9092H106.086V22.1792H114.126L105.846 30.6392V33.9092H118.596V30.6392H110.226Z" fill="#999999"/>
<path d="M119.994 29.6792L123.924 29.0792C124.194 30.5792 125.964 31.1492 127.044 31.1492C128.154 31.1492 130.074 30.9092 130.074 29.1092C130.074 25.5992 120.444 29.9792 120.444 23.2592C120.444 18.9392 125.454 18.6992 127.044 18.6992C128.544 18.6992 132.894 18.9392 133.794 22.4192L130.074 23.1992C129.744 21.6092 128.064 21.3092 127.164 21.3092C126.264 21.3092 124.344 21.5192 124.344 23.2592C124.344 26.7392 133.974 22.2992 133.974 29.1092C133.974 33.6992 128.694 34.0892 127.044 34.0892C125.544 34.0892 120.774 33.6992 119.994 29.6792Z" fill="#999999"/>
<path d="M139.041 26.4092C139.041 30.0692 140.991 31.1792 143.031 31.1492C144.861 31.1192 146.121 30.3692 146.871 28.2692L150.081 29.8292C148.911 32.8892 146.061 34.0592 143.031 34.0892C139.101 34.1192 135.141 31.5992 135.141 26.4092C135.141 21.2192 139.101 18.6992 143.031 18.7292C146.061 18.7592 148.911 19.9292 150.081 22.9892L146.871 24.5492C146.121 22.4492 144.861 21.6992 143.031 21.6692C140.991 21.6392 139.041 22.7492 139.041 26.4092Z" fill="#999999"/>
<path d="M160.55 18.6692C158.54 18.6692 156.71 19.7192 155.54 21.9692V12.9092H151.64V33.9092H155.54V28.5992C155.54 21.7292 158.39 21.1592 159.44 21.1592C161.12 21.1592 161.36 22.8992 161.36 25.4492V33.9092H165.26V25.4492C165.26 22.2692 164.75 18.6692 160.55 18.6692Z" fill="#999999"/>
<path d="M181.726 26.4092C181.726 21.2192 178.036 18.7592 174.136 18.7292C170.206 18.6992 166.576 21.2192 166.576 26.4092C166.576 31.5992 170.206 34.1192 174.136 34.0892C177.706 34.0592 180.166 32.4092 181.306 29.6792L178.276 28.4192C177.346 30.2792 175.876 30.9392 174.136 30.9692C172.636 30.9992 170.926 30.2792 170.566 27.6092H181.636C181.696 27.2192 181.726 26.8292 181.726 26.4092ZM174.136 21.8192C175.636 21.8492 177.166 22.6592 177.646 24.8192H170.626C171.136 22.6292 172.666 21.7892 174.136 21.8192Z" fill="#999999"/>
<defs>
<clipPath id="clip0_2515_6539">
<rect width="44" height="44" fill="white" transform="translate(0.5 2)"/>
</clipPath>
</defs>
</svg>
