<svg width="180" height="48" viewBox="0 0 180 48" fill="none" xmlns="http://www.w3.org/2000/svg">
<path d="M26.2996 35.7873C22.7996 34.4873 19.1996 34.2873 15.8996 35.1873C13.5996 35.7873 11.3996 36.9873 9.39963 38.4873L7.9996 39.6873L7.59961 40.0873L8.4996 40.8873C8.5996 40.8873 8.59962 40.9873 8.69962 41.0873C8.89962 41.2873 9.09963 41.3873 9.39963 41.5873L9.9996 41.9873L10.5996 41.4873C10.6996 41.3873 10.8996 41.1873 11.0996 41.0873C12.8996 39.5873 14.8996 38.5873 16.9996 38.0873C19.6996 37.3873 22.5996 37.4873 25.4996 38.5873C27.8996 39.4873 32.7996 40.5873 38.6996 38.0873L38.8996 37.9873L39.1996 37.6873C39.1996 37.5873 39.2996 37.5873 39.3996 37.4873C39.8996 36.8873 40.3996 36.2873 40.7996 35.5873L42.7996 32.4873L39.5996 34.2873C34.8996 36.8873 30.5996 37.3873 26.2996 35.7873Z" fill="#999999"/>
<path d="M12.6 24.9876C15.3 24.2876 18.2 24.3876 21.1 25.4876C24.3 26.6876 32.5 28.3876 41.7 20.0876L43.2 18.5876L43.3 18.4876L43.7 18.0876L43.5 17.5876C43.4 17.1876 43.2 16.6876 43 16.1876L42.5 14.7876L41.5 15.7876C41.4 15.9876 41.2 16.0876 41 16.2876C36.6 20.7876 29.8 25.3876 22 22.5876C18.5 21.2876 14.9 21.0876 11.6 21.9876C8.40001 22.8876 5.6 24.5876 3 26.9876V26.8876L1.5 28.4876C1.5 28.5876 1.40002 28.5876 1.30002 28.6876L1 28.9876L1.10001 29.3876C1.20001 29.8876 1.4 30.3876 1.5 30.8876L2.10001 32.4876L3.10001 31.1876C3.20001 30.9876 3.4 30.8876 3.5 30.6876C5.6 28.7876 8.50001 26.0876 12.6 24.9876Z" fill="#999999"/>
<path d="M2.90002 23.1876C5.20002 20.7876 7.80001 19.2876 10.6 18.4876C13.3 17.7876 16.2 17.8876 19.1 18.9876C28.1 22.2876 35.9 16.8876 39.3 13.9876L40.6 12.6876L41.1 12.2876L40.7 11.6876C40.4 11.3876 40.2 10.9876 39.9 10.5876L39.3 9.7876L38.6 10.4876C38.5 10.5876 38.3 10.7876 38.2 10.8876C34 14.8876 27.5 18.9876 20.1 16.1876C16.6 14.8876 13 14.6876 9.70001 15.5876C7.60001 16.1876 5.60001 17.1876 3.60001 18.4876L1.5 20.1876C1.3 20.3876 1.2 20.4876 1 20.6876L0.800018 20.8876V21.1876C0.700018 21.8876 0.700006 22.5876 0.600006 23.1876L0.5 25.6876L2.20001 23.8876C2.40001 23.6876 2.60002 23.3876 2.90002 23.1876Z" fill="#999999"/>
<path d="M29.2004 42.5875L29.0004 43.1875L29.2004 42.5875C28.9004 42.4875 28.7004 42.3875 28.4004 42.2875C24.9004 40.9875 21.3004 40.7875 18.0004 41.6875C17.3004 41.8875 16.6004 42.0875 15.9004 42.3875L13.5004 43.4875L12.9004 43.7875L14.9004 44.4875C15.5004 44.6875 16.1004 44.8875 16.7004 45.0875L17.0004 45.1875L17.3004 45.0875C17.6004 44.9875 17.9004 44.7875 18.2004 44.7875C18.4004 44.7875 18.6004 44.6875 18.8004 44.5875C21.2004 43.9875 23.8004 43.9875 26.6004 44.8875C26.9004 44.9875 27.1004 45.0875 27.4004 45.1875L27.9004 45.3875L28.2004 45.2875C28.9004 45.0875 29.7004 44.8875 30.3004 44.5875L33.1004 43.5875L30.2004 42.8875C29.9004 42.7875 29.5004 42.6875 29.2004 42.5875Z" fill="#999999"/>
<path d="M44.4998 21.8877L42.9998 23.3877C42.7998 23.5877 42.5998 23.7877 42.3998 23.9877C38.2998 27.8877 31.6998 32.0877 24.2998 29.2877C20.7998 27.9877 17.1998 27.7877 13.8998 28.6877C10.7998 29.5877 7.99979 31.1877 5.49979 33.5877L4.1998 34.9877L3.7998 35.4877L4.1998 36.0877C4.4998 36.4877 4.69981 36.7877 4.89981 37.1877L5.49979 38.0877L6.1998 37.1877C6.2998 37.0877 6.49979 36.8877 6.59979 36.7877C8.99979 34.1877 11.5998 32.5877 14.5998 31.7877C17.2998 31.0877 20.1998 31.1877 23.0998 32.2877C25.5998 33.1877 28.1998 33.4877 30.7998 33.1877C35.3998 32.6877 39.9998 30.0877 43.3998 27.1877C43.5998 26.9877 43.7998 26.8877 43.9998 26.6877L44.2998 26.3877V26.0877C44.2998 25.4877 44.3998 24.7877 44.3998 24.1877L44.4998 21.8877Z" fill="#999999"/>
<path d="M6.50018 12.6879L6.2002 12.0879L6.50018 12.6879C7.10018 12.3879 7.80021 12.1879 8.40021 11.9879C11.1002 11.2879 14.0002 11.3879 16.9002 12.4879C18.8002 13.1879 20.7002 13.4879 22.8002 13.4879C27.0002 13.4879 31.2002 11.9879 35.1002 9.08789L36.6002 7.88788L37.1002 7.48788L36.2002 6.78787C35.9002 6.48787 35.5002 6.18788 35.1002 5.98788L34.5002 5.58789L34.0002 5.98788C33.8002 6.08788 33.7002 6.28788 33.5002 6.38788C28.2002 10.3879 22.9002 11.4879 17.9002 9.58789C14.3002 8.28789 10.7002 7.98789 7.10019 9.08789C6.80019 9.18789 6.50019 9.28788 6.10019 9.38788L5.90021 9.48788L5.60019 9.78787C5.60019 9.88787 5.50021 9.88788 5.40021 9.98788C5.00021 10.5879 4.50019 11.0879 4.10019 11.6879L2.2002 14.5879L5.3002 12.9879C5.8002 12.9879 6.20018 12.7879 6.50018 12.6879Z" fill="#999999"/>
<path d="M14.7 5.88748L15 5.98749C16.3 6.48749 18.3 6.98749 20.8 6.98749C23.4 6.98749 25.9 6.38748 28.4 5.38748L31.5 3.88748L29.4 3.1875C28.8 2.9875 28.2 2.7875 27.5 2.6875H27.2L26.9 2.78748C26.6 2.88748 26.3 3.0875 26 3.1875C23 4.2875 20 4.4875 17.1 3.6875C16.8 3.5875 16.5 3.48748 16.2 3.38748L15.9 3.28748L15.6 3.38748C15 3.58748 14.4 3.78749 13.8 4.08749L11.5 5.08749L13.9 5.78748C14.1 5.68748 14.4 5.78748 14.7 5.88748Z" fill="#999999"/>
<path d="M61.7797 33.9093H57.166L64.1958 13.5457H69.7441L76.764 33.9093H72.1504L67.0495 18.1991H66.8904L61.7797 33.9093ZM61.4913 25.9051H72.389V29.2658H61.4913V25.9051Z" fill="#999999"/>
<path d="M83.3713 13.5457V33.9093H79.1355V13.5457H83.3713Z" fill="#999999"/>
<path d="M94.888 18.6366V21.8184H85.6905V18.6366H94.888ZM87.7786 14.9775H92.0144V29.2161C92.0144 29.6072 92.074 29.9122 92.1934 30.1309C92.3127 30.343 92.4784 30.4922 92.6905 30.5784C92.9093 30.6645 93.1612 30.7076 93.4462 30.7076C93.6451 30.7076 93.8439 30.691 94.0428 30.6579C94.2417 30.6181 94.3941 30.5883 94.5002 30.5684L95.1664 33.7204C94.9543 33.7867 94.656 33.8629 94.2715 33.9491C93.887 34.0419 93.4197 34.0982 92.8695 34.1181C91.8487 34.1579 90.9538 34.022 90.1848 33.7104C89.4225 33.3989 88.8292 32.915 88.405 32.2587C87.9808 31.6025 87.772 30.7739 87.7786 29.7729V14.9775Z" fill="#999999"/>
<path d="M103.228 32.8056V18.7261H106.787V32.8056H103.228ZM97.9679 27.5457V23.986H112.047V27.5457H97.9679Z" fill="#999999"/>
<path d="M127.34 19.4022C127.26 18.6001 126.919 17.977 126.316 17.5329C125.713 17.0888 124.894 16.8667 123.86 16.8667C123.157 16.8667 122.564 16.9661 122.08 17.165C121.596 17.3572 121.225 17.6257 120.966 17.9704C120.715 18.3151 120.589 18.7062 120.589 19.1437C120.575 19.5083 120.652 19.8265 120.817 20.0982C120.99 20.37 121.225 20.6053 121.523 20.8042C121.822 20.9964 122.166 21.1655 122.557 21.3113C122.948 21.4505 123.366 21.5698 123.81 21.6693L125.64 22.1068C126.528 22.3056 127.343 22.5708 128.086 22.9022C128.828 23.2337 129.471 23.6413 130.015 24.1252C130.558 24.6091 130.979 25.1792 131.278 25.8355C131.582 26.4917 131.738 27.2441 131.745 28.0926C131.738 29.3388 131.42 30.4193 130.79 31.334C130.167 32.2422 129.266 32.9481 128.086 33.4519C126.912 33.9491 125.497 34.1977 123.84 34.1977C122.196 34.1977 120.764 33.9458 119.545 33.442C118.331 32.9382 117.384 32.1925 116.701 31.2048C116.025 30.2105 115.67 28.9808 115.637 27.5158H119.803C119.849 28.1986 120.045 28.7687 120.39 29.2261C120.741 29.6768 121.208 30.0182 121.792 30.2502C122.382 30.4756 123.048 30.5883 123.79 30.5883C124.519 30.5883 125.153 30.4822 125.689 30.2701C126.233 30.058 126.654 29.763 126.952 29.3852C127.251 29.0073 127.4 28.5731 127.4 28.0826C127.4 27.6252 127.264 27.2408 126.992 26.9292C126.727 26.6176 126.336 26.3525 125.819 26.1337C125.308 25.915 124.682 25.7161 123.939 25.5372L121.722 24.9803C120.005 24.5627 118.65 23.9098 117.655 23.0215C116.661 22.1333 116.167 20.9368 116.174 19.432C116.167 18.1991 116.495 17.1219 117.158 16.2005C117.828 15.2791 118.746 14.5599 119.912 14.0428C121.079 13.5258 122.405 13.2673 123.89 13.2673C125.401 13.2673 126.72 13.5258 127.847 14.0428C128.981 14.5599 129.862 15.2791 130.492 16.2005C131.122 17.1219 131.447 18.1891 131.466 19.4022H127.34Z" fill="#999999"/>
<path d="M138.797 25.0798V33.9093H134.561V13.5457H138.678V21.3312H138.857C139.201 20.4297 139.758 19.7237 140.527 19.2133C141.296 18.6962 142.261 18.4377 143.421 18.4377C144.481 18.4377 145.406 18.6697 146.195 19.1337C146.99 19.5911 147.607 20.2507 148.044 21.1124C148.488 21.9676 148.707 22.9917 148.7 24.1849V33.9093H144.465V24.9406C144.471 23.9993 144.233 23.2668 143.749 22.7431C143.271 22.2194 142.602 21.9576 141.74 21.9576C141.164 21.9576 140.653 22.0802 140.209 22.3255C139.771 22.5708 139.427 22.9287 139.175 23.3994C138.93 23.8634 138.804 24.4235 138.797 25.0798Z" fill="#999999"/>
<path d="M152.034 33.9093V18.6366H156.27V33.9093H152.034ZM154.162 16.6678C153.532 16.6678 152.992 16.459 152.541 16.0414C152.097 15.6172 151.875 15.1101 151.875 14.5201C151.875 13.9368 152.097 13.4363 152.541 13.0187C152.992 12.5944 153.532 12.3823 154.162 12.3823C154.791 12.3823 155.328 12.5944 155.773 13.0187C156.223 13.4363 156.449 13.9368 156.449 14.5201C156.449 15.1101 156.223 15.6172 155.773 16.0414C155.328 16.459 154.791 16.6678 154.162 16.6678Z" fill="#999999"/>
<path d="M169.39 18.6366V21.8184H158.45V18.6366H169.39ZM160.607 33.9093V17.5329C160.607 16.4259 160.823 15.5078 161.254 14.7786C161.691 14.0495 162.288 13.5026 163.044 13.138C163.799 12.7734 164.658 12.5911 165.619 12.5911C166.268 12.5911 166.862 12.6408 167.399 12.7403C167.942 12.8397 168.347 12.9292 168.612 13.0087L167.856 16.1906C167.69 16.1375 167.485 16.0878 167.24 16.0414C167.001 15.995 166.756 15.9718 166.504 15.9718C165.881 15.9718 165.446 16.1176 165.201 16.4093C164.956 16.6944 164.833 17.0954 164.833 17.6124V33.9093H160.607Z" fill="#999999"/>
<path d="M178.587 18.6366V21.8184H169.39V18.6366H178.587ZM171.478 14.9775H175.714V29.2161C175.714 29.6072 175.773 29.9122 175.893 30.1309C176.012 30.343 176.178 30.4922 176.39 30.5784C176.608 30.6645 176.86 30.7076 177.145 30.7076C177.344 30.7076 177.543 30.691 177.742 30.6579C177.941 30.6181 178.093 30.5883 178.199 30.5684L178.866 33.7204C178.653 33.7867 178.355 33.8629 177.971 33.9491C177.586 34.0419 177.119 34.0982 176.569 34.1181C175.548 34.1579 174.653 34.022 173.884 33.7104C173.122 33.3989 172.528 32.915 172.104 32.2587C171.68 31.6025 171.471 30.7739 171.478 29.7729V14.9775Z" fill="#999999"/>
</svg>
