<svg width="164" height="48" viewBox="0 0 164 48" fill="none" xmlns="http://www.w3.org/2000/svg">
<path opacity="0.7" fill-rule="evenodd" clip-rule="evenodd" d="M16.5 30C23.1274 30 28.5 24.6274 28.5 18C28.5 11.3726 23.1274 6 16.5 6C9.87258 6 4.5 11.3726 4.5 18C4.5 24.6274 9.87258 30 16.5 30ZM16.5 34C25.3366 34 32.5 26.8366 32.5 18C32.5 9.16344 25.3366 2 16.5 2C7.66344 2 0.5 9.16344 0.5 18C0.5 26.8366 7.66344 34 16.5 34Z" fill="#999999"/>
<path fill-rule="evenodd" clip-rule="evenodd" d="M24.5 42C31.1274 42 36.5 36.6274 36.5 30C36.5 23.3726 31.1274 18 24.5 18C17.8726 18 12.5 23.3726 12.5 30C12.5 36.6274 17.8726 42 24.5 42ZM24.5 46C33.3366 46 40.5 38.8366 40.5 30C40.5 21.1634 33.3366 14 24.5 14C15.6634 14 8.5 21.1634 8.5 30C8.5 38.8366 15.6634 46 24.5 46Z" fill="#999999"/>
<path d="M52.4502 33.9092H56.9802V12.9092H52.4502V33.9092Z" fill="#999999"/>
<path d="M58.9677 33.9092H63.1677V25.6292C63.1677 23.6792 64.4577 22.2692 66.2877 22.2692C68.0277 22.2692 69.1977 23.5892 69.1977 25.4192V33.9092H73.3977V24.4892C73.3977 21.0092 71.1777 18.5492 67.7577 18.5492C65.6877 18.5492 64.0077 19.4192 63.1677 20.8892V18.7892H58.9677V33.9092Z" fill="#999999"/>
<path d="M76.4392 14.3192V18.7892H73.5292V22.2692H76.4392V28.4192C76.4392 31.9292 78.6892 33.9092 82.1692 33.9092H84.6592V30.3992H82.7392C81.3892 30.3992 80.6092 29.7092 80.6092 28.2392V22.2692H84.6592V18.7892H80.6092V14.3192H76.4392Z" fill="#999999"/>
<path d="M95.2574 28.7792C94.9274 30.0692 93.8174 30.7292 92.1374 30.7292C90.0374 30.7292 88.6874 29.4092 88.3874 27.2792H99.2474C99.2774 26.9492 99.3074 26.4992 99.3074 25.9292C99.3074 22.4792 97.1774 18.5492 91.8374 18.5492C86.7074 18.5492 84.3674 22.4792 84.3674 26.3192C84.3674 30.1292 87.0074 34.1492 92.1374 34.1492C95.8574 34.1492 98.7374 32.0492 99.3374 28.7792H95.2574ZM91.8374 21.6092C93.8474 21.6092 95.0174 22.9592 95.1374 24.6392H88.4474C88.8074 22.5392 89.9474 21.6092 91.8374 21.6092Z" fill="#999999"/>
<path d="M109.802 22.2692V18.7892H108.092C106.262 18.7892 105.122 19.4192 104.312 21.3092V18.7892H100.112V33.9092H104.312V26.5592C104.312 23.9792 105.242 22.2692 107.312 22.2692H109.802Z" fill="#999999"/>
<path d="M110.483 33.9092H114.653V12.2192H110.483V33.9092Z" fill="#999999"/>
<path d="M123.648 34.1492C128.298 34.1492 131.628 30.8492 131.628 26.3492C131.628 21.8492 128.298 18.5492 123.648 18.5492C118.998 18.5492 115.668 21.8492 115.668 26.3492C115.668 30.8492 118.998 34.1492 123.648 34.1492ZM123.648 30.5492C121.398 30.5492 119.868 28.8392 119.868 26.3492C119.868 23.8292 121.398 22.1192 123.648 22.1192C125.898 22.1192 127.428 23.8292 127.428 26.3492C127.428 28.8392 125.898 30.5492 123.648 30.5492Z" fill="#999999"/>
<path d="M139.429 34.1492C143.359 34.1492 146.479 31.6292 146.929 28.2692H142.669C142.369 29.6192 141.139 30.5492 139.609 30.5492C137.329 30.5492 135.979 28.8092 135.979 26.3492C135.979 23.8892 137.299 22.1192 139.549 22.1192C141.079 22.1192 142.369 23.1092 142.609 24.4592H146.809C146.539 20.9492 143.389 18.5492 139.429 18.5492C134.749 18.5492 131.629 21.9392 131.629 26.3492C131.629 30.7592 134.749 34.1492 139.429 34.1492Z" fill="#999999"/>
<path d="M157.96 33.9092H163L156.49 24.7292L162.52 18.7892H157.24L151.99 23.9492V12.2192H147.79V33.9092H151.99V29.1692L153.67 27.5192L157.96 33.9092Z" fill="#999999"/>
</svg>
